<?xml version="1.0" encoding="UTF-8"?>
<svg id="Capa_2" data-name="Capa 2" xmlns="http://www.w3.org/2000/svg" xmlns:xlink="http://www.w3.org/1999/xlink" viewBox="0 0 52.98 64.84">
  <defs>
    <style>
      .cls-1 {
        fill: url(#linear-gradient-2);
      }

      .cls-2 {
        fill: url(#linear-gradient-6);
      }

      .cls-3 {
        fill: url(#linear-gradient-11);
      }

      .cls-4 {
        fill: url(#linear-gradient-10);
      }

      .cls-5 {
        fill: url(#linear-gradient-5);
      }

      .cls-6 {
        fill: url(#linear-gradient-7);
      }

      .cls-7 {
        fill: url(#linear-gradient-9);
      }

      .cls-8 {
        fill: url(#linear-gradient-3);
      }

      .cls-9 {
        fill: url(#linear-gradient);
      }

      .cls-10 {
        fill: url(#linear-gradient-4);
      }

      .cls-11 {
        fill: url(#linear-gradient-8);
      }

      .cls-12 {
        fill: url(#linear-gradient-12);
      }
    </style>
    <linearGradient id="linear-gradient" x1="-211.75" y1="-187.74" x2="-195.52" y2="-187.74" gradientTransform="translate(198.92 249.2) rotate(9.48)" gradientUnits="userSpaceOnUse">
      <stop offset="0" stop-color="#407238"/>
      <stop offset="1" stop-color="#97b858"/>
    </linearGradient>
    <linearGradient id="linear-gradient-2" x1="40.81" y1="4.96" x2="41.25" y2="4.65" gradientTransform="matrix(1, 0, 0, 1, 0, 0)" xlink:href="#linear-gradient"/>
    <linearGradient id="linear-gradient-3" x1="20.62" y1="43.4" x2="54.08" y2="19.52" gradientTransform="matrix(1, 0, 0, 1, 0, 0)" xlink:href="#linear-gradient"/>
    <linearGradient id="linear-gradient-4" x1="-209.17" y1="-171.25" x2="-184.32" y2="-196.1" gradientTransform="translate(198.92 249.2) rotate(9.48)" gradientUnits="userSpaceOnUse">
      <stop offset="0" stop-color="#b2e958"/>
      <stop offset=".99" stop-color="#728038"/>
    </linearGradient>
    <linearGradient id="linear-gradient-5" x1="-3794.15" y1="547.94" x2="-3780.03" y2="547.94" gradientTransform="translate(-3780.29 485.27) rotate(164.81) scale(1 -1)" gradientUnits="userSpaceOnUse">
      <stop offset="0" stop-color="#407238"/>
      <stop offset="1" stop-color="#97ce58"/>
    </linearGradient>
    <linearGradient id="linear-gradient-6" x1="-3780.61" y1="524.32" x2="-3780.28" y2="523.99" gradientTransform="translate(-3780.29 485.27) rotate(164.81) scale(1 -1)" xlink:href="#linear-gradient"/>
    <linearGradient id="linear-gradient-7" x1="-3792.43" y1="560.21" x2="-3767.87" y2="535.65" gradientTransform="translate(-3780.29 485.27) rotate(164.81) scale(1 -1)" xlink:href="#linear-gradient"/>
    <linearGradient id="linear-gradient-8" x1="-3791.91" y1="562.29" x2="-3770.28" y2="540.66" gradientTransform="translate(-3780.29 485.27) rotate(164.81) scale(1 -1)" xlink:href="#linear-gradient-4"/>
    <linearGradient id="linear-gradient-9" x1="7.59" y1="31.81" x2="26.41" y2="31.81" gradientTransform="matrix(1, 0, 0, 1, 0, 0)" xlink:href="#linear-gradient-5"/>
    <linearGradient id="linear-gradient-10" x1="25.64" y1=".34" x2="26.08" y2="-.1" gradientTransform="matrix(1, 0, 0, 1, 0, 0)" xlink:href="#linear-gradient-5"/>
    <linearGradient id="linear-gradient-11" x1="9.89" y1="48.16" x2="42.61" y2="15.44" gradientTransform="matrix(1, 0, 0, 1, 0, 0)" xlink:href="#linear-gradient-5"/>
    <linearGradient id="linear-gradient-12" x1="10.58" y1="50.93" x2="39.39" y2="22.11" gradientTransform="matrix(1, 0, 0, 1, 0, 0)" xlink:href="#linear-gradient-4"/>
  </defs>
  <g id="Layer_1" data-name="Layer 1">
    <g>
      <g>
        <path class="cls-9" d="m32.74,43.39s3.71-20.58,5.2-27.06c1.49-6.48,3.54-11.35,3.54-11.35-.6-.32-1.27-.45-1.94-.48-1.27-.04-2.6.41-3.59,1.22-1.65,1.36-2.39,3.3-2.71,5.37-.18,1.14-.23,2.32-.39,3.47-.4-.17-.81-.32-1.25-.43-1.36-.37-2.84-.11-4.02.64-.95.6-1.6,1.64-2.08,2.63-.29.6-.56,1.24-.66,1.9-.14.93,0,1.78.23,2.67.1.4.26.79.42,1.17-.47,0-.95.06-1.41.18-1.63.44-2.52,2.1-2.72,3.67-.17,1.4-.13,2.84.25,4.21.35,1.25,1.25,2.28,2.18,3.14.65.6,1.31,1.18,1.97,1.77.55.5,1.13.98,1.66,1.51.2.24.38.49.54.76.17.36.31.74.42,1.13.04.2.07.4.09.6-.27-.27-.55-.53-.87-.74-.57-.38-1.01-.62-1.68-.78-.6-.14-1.19-.07-1.77.1-1,.3-1.81,1.16-2.24,2.08-.45.95-.48,2.08-.1,3.06.84,2.14,3.4,3.82,5.02,5.38,1.17,1.13,2.24,2.55,2.31,4.17.06,1.27-.49,2.6-.03,3.79.36.95,1.39,1.6,2.41,1.53l1.21-15.28Z"/>
        <g>
          <path class="cls-1" d="m41.48,4.98c-.29-.15-.59-.26-.9-.34l.9.34Z"/>
          <path class="cls-8" d="m48.96,28.33c1.07-.88,1.97-1.9,2.64-3.14,1.58-2.91,2.16-6.65-.16-9.33-.67-.77-1.63-1.3-2.6-1.59-1.23-.37-2.4-.24-3.64-.06-.11.02-.22.04-.33.08.05-.47.09-.95.11-1.43.03-.72.07-1.45-.01-2.16-.07-.58-.21-1.15-.37-1.7-.28-.94-.75-1.89-1.4-2.62-.52-.59-1.01-1.02-1.71-1.39,0,0-2.05,4.87-3.54,11.35-1.49,6.48-5.2,27.06-5.2,27.06l-1.21,15.28s.05,0,.08,0c3.02-.33,2.9-4.97,5.3-6.27,2.35-1.27,4.99-1.16,7.12-3.09.66-.6,1.16-1.16,1.6-1.93.43-.75.59-1.59.58-2.45-.02-1.48-.95-2.9-2.23-3.59-.77-.41-1.76-.51-2.61-.34-.88.18-1.68.46-2.49.82-.34.15-.68.3-1.02.43.2-.25.42-.49.65-.72,2-1.98,3.43-1.66,6.09-1.69,2.9-.04,6.45-1.59,7.37-4.55.55-1.76.12-3.31-.77-4.64-.59-.87-1.38-1.65-2.23-2.32Z"/>
        </g>
        <path class="cls-10" d="m32.91,48.15c.42-2.99.99-6.52,1.6-10.19l9.15-5.6-8.99,4.66c.5-2.93,1.02-5.93,1.53-8.8l8.64-6.62-8.4,5.3c1.58-8.85,2.95-16.13,2.78-15.73-.15.35-1.82,7.28-3.69,15.78l-5.26-7.79,5.1,8.49c-.65,2.99-1.33,6.16-1.97,9.29l-9.72-7.5,9.53,8.43c-.69,3.42-1.33,6.77-1.84,9.77l-7.44-4,7.21,5.39c-.98,5.93-1.38,10.2-.56,10.37,0,0,1.99,1.92,1.57-3.23-.09-1.12.16-3.64.61-6.96l8.82-4.35-8.67,3.28Z"/>
      </g>
      <g>
        <path class="cls-5" d="m16.06,33.36s-5-17.5-6.85-22.99C7.36,4.89,5.16.85,5.16.85c.49-.33,1.06-.5,1.64-.58,1.1-.15,2.29.13,3.21.75,1.55,1.04,2.35,2.66,2.82,4.41.26.97.4,1.99.63,2.97.33-.19.67-.34,1.04-.48,1.14-.44,2.45-.34,3.54.2.88.44,1.53,1.28,2.03,2.1.3.49.59,1.02.73,1.58.2.79.16,1.54.04,2.33-.06.36-.15.7-.27,1.05.41-.05.83-.03,1.23.03,1.45.24,2.37,1.6,2.67,2.94.27,1.2.36,2.45.14,3.66-.2,1.12-.88,2.08-1.62,2.91-.51.58-1.04,1.14-1.55,1.71-.43.48-.89.95-1.3,1.45-.15.22-.29.46-.4.7-.12.33-.21.67-.27,1.01-.02.18-.03.35-.03.53.21-.26.43-.5.69-.71.46-.38.82-.63,1.39-.82.51-.17,1.02-.17,1.54-.07.89.17,1.67.85,2.12,1.61.47.78.6,1.76.35,2.64-.54,1.93-2.62,3.6-3.88,5.09-.92,1.08-1.72,2.4-1.64,3.81.06,1.11.65,2.21.36,3.28-.23.86-1.07,1.51-1.95,1.53l-2.37-13.13Z"/>
        <g>
          <path class="cls-2" d="m5.16.85c.23-.16.49-.28.75-.37l-.75.37Z"/>
          <path class="cls-6" d="m7.01,30.2c-.8-.32-1.64-.6-2.4-1-.32-.17-.61-.39-.9-.6-.52-.39-1.03-.78-1.5-1.23-.49-.46-.92-.98-1.33-1.52-.35-.47-.65-1.04-.78-1.62-.19-.82-.13-1.71.33-2.44.52-.82,1.34-1.35,2.3-1.42-.15-.14-.31-.28-.45-.43-.87-.9-1.48-1.96-1.8-3.17-.24-.9-.44-1.88-.37-2.82.05-.65.17-1.3.53-1.85.56-.86,1.42-1.31,2.43-1.38.12,0,.23,0,.35,0-.25-.9-.46-1.81-.59-2.74-.09-.62-.19-1.25-.18-1.88,0-.5.08-1.01.17-1.51.16-.84.48-1.7.98-2.39.4-.55.79-.97,1.36-1.35,0,0,2.19,4.04,4.05,9.53,1.85,5.49,6.85,22.99,6.85,22.99l2.37,13.13s-.05,0-.07,0c-2.64-.03-2.94-4.06-5.13-4.97-2.15-.89-4.43-.57-6.44-2.06-.62-.46-1.1-.9-1.56-1.53-.44-.61-.65-1.33-.71-2.07-.11-1.29.57-2.59,1.62-3.3.63-.42,1.48-.59,2.23-.52.77.08,1.49.26,2.23.49.31.1.61.2.92.29-.19-.2-.41-.39-.62-.57-1.19-.85-2.55-1.48-3.9-2.04Z"/>
        </g>
        <path class="cls-11" d="m16.32,37.5c-.63-2.55-1.42-5.56-2.27-8.69l-8.41-4.06,8.19,3.26c-.68-2.5-1.4-5.05-2.09-7.49L3.69,15.54l7.73,3.87c-2.14-7.53-3.95-13.71-3.77-13.38.16.29,2.21,6.15,4.56,13.35l3.88-7.21-3.69,7.79c.83,2.54,1.68,5.22,2.51,7.88l7.77-7.34-7.53,8.13c.89,2.9,1.74,5.75,2.44,8.3l6.1-4.11-5.77,5.3c1.36,5.05,2.07,8.71,1.38,8.93,0,0-1.56,1.84-1.64-2.66-.02-.97-.45-3.14-1.13-5.97l-8.01-3,7.79,2.09Z"/>
      </g>
      <g>
        <path class="cls-7" d="m23.75,45.84s.31-24.25.78-31.95c.47-7.7,1.88-13.66,1.88-13.66-.75-.25-1.54-.28-2.31-.17-1.46.2-2.89.96-3.87,2.08-1.63,1.87-2.1,4.24-2.08,6.66.01,1.34.18,2.69.22,4.04-.49-.12-.99-.21-1.51-.26-1.62-.16-3.27.42-4.48,1.5-.97.87-1.52,2.18-1.88,3.4-.21.74-.4,1.52-.39,2.29.02,1.09.33,2.03.77,3.02.2.44.44.85.71,1.25-.54.08-1.07.25-1.57.47-1.78.81-2.49,2.89-2.41,4.72.07,1.64.4,3.28,1.09,4.76.64,1.37,1.86,2.37,3.1,3.18.86.56,1.73,1.1,2.59,1.65.72.46,1.48.91,2.18,1.41.27.24.53.49.76.77.27.38.5.79.7,1.21.08.22.16.44.22.67-.36-.26-.73-.5-1.13-.68-.73-.33-1.27-.52-2.08-.57-.71-.05-1.37.14-2,.45-1.08.53-1.84,1.68-2.17,2.81-.33,1.17-.16,2.47.47,3.51,1.37,2.29,4.62,3.72,6.76,5.19,1.56,1.07,3.04,2.48,3.44,4.33.31,1.44-.06,3.06.69,4.34.6,1.02,1.9,1.57,3.05,1.29l-1.53-17.71Z"/>
        <g>
          <path class="cls-4" d="m26.41.23c-.36-.12-.73-.19-1.1-.22l1.1.22Z"/>
          <path class="cls-3" d="m34.28,38.62c.92-.69,1.9-1.34,2.73-2.13.35-.33.65-.71.95-1.09.53-.68,1.05-1.37,1.5-2.1.47-.77.85-1.58,1.18-2.42.29-.73.47-1.57.44-2.35-.04-1.12-.43-2.25-1.27-3.02-.96-.88-2.2-1.26-3.45-1.03.15-.23.3-.47.43-.71.81-1.46,1.21-3.03,1.21-4.7,0-1.24-.09-2.58-.51-3.75-.29-.81-.67-1.61-1.33-2.2-1.02-.91-2.29-1.19-3.61-.93-.15.03-.3.07-.45.11,0-1.24-.04-2.49-.2-3.73-.1-.82-.2-1.67-.43-2.47-.19-.65-.45-1.28-.75-1.88-.49-1.02-1.21-2.02-2.1-2.73-.71-.57-1.35-.97-2.22-1.27,0,0-1.41,5.96-1.88,13.66-.47,7.7-.78,31.95-.78,31.95l1.53,17.71s.06-.02.09-.02c3.39-.95,2.37-6.24,4.86-8.18,2.45-1.9,5.49-2.28,7.56-4.9.64-.81,1.1-1.54,1.47-2.52.35-.94.37-1.94.19-2.91-.31-1.69-1.63-3.13-3.24-3.68-.96-.33-2.11-.25-3.05.11-.97.37-1.83.85-2.7,1.41-.36.23-.72.47-1.09.69.18-.33.38-.65.6-.95,1.24-1.51,2.76-2.79,4.3-3.99Z"/>
        </g>
        <path class="cls-12" d="m24.85,51.25c-.09-3.5-.12-7.64-.11-11.96l9.4-8.15-9.4,7.05c0-3.45.04-6.98.07-10.36l8.61-9.22-8.6,7.67c.12-10.43.3-19.01.17-18.52-.11.43-.7,8.68-1.21,18.76l-7.5-7.91,7.46,8.73c-.18,3.55-.34,7.3-.47,11l-12.55-6.73,12.52,7.82c-.14,4.04-.23,7.99-.24,11.52l-9.27-3.15,9.27,4.79c.02,6.97.37,11.92,1.34,11.97,0,0,2.64,1.82,1.18-4-.32-1.26-.51-4.2-.63-8.08l9.25-6.66-9.29,5.41Z"/>
      </g>
    </g>
  </g>
</svg>