<?xml version="1.0" encoding="UTF-8"?>
<svg xmlns="http://www.w3.org/2000/svg" xmlns:xlink="http://www.w3.org/1999/xlink" viewBox="0 0 210.19 330.59">
  <defs>
    <style>
      .cls-1 {
        fill: url(#linear-gradient-2);
      }

      .cls-2 {
        fill: url(#linear-gradient-15);
      }

      .cls-3 {
        fill: url(#linear-gradient-14);
      }

      .cls-4 {
        fill: url(#linear-gradient-6);
      }

      .cls-5 {
        isolation: isolate;
      }

      .cls-6 {
        fill: url(#linear-gradient-11);
      }

      .cls-7 {
        fill: url(#linear-gradient-10);
      }

      .cls-8 {
        fill: url(#linear-gradient-5);
      }

      .cls-9 {
        fill: url(#linear-gradient-7);
      }

      .cls-10 {
        fill: #f1f2f2;
      }

      .cls-10, .cls-11 {
        mix-blend-mode: multiply;
      }

      .cls-12 {
        fill: url(#linear-gradient-9);
      }

      .cls-13 {
        fill: url(#linear-gradient-3);
      }

      .cls-14 {
        fill: url(#linear-gradient);
      }

      .cls-15 {
        fill: url(#linear-gradient-4);
      }

      .cls-16 {
        fill: url(#linear-gradient-8);
      }

      .cls-11 {
        fill: #e6e7e8;
      }

      .cls-17 {
        fill: url(#linear-gradient-12);
      }

      .cls-18 {
        fill: url(#linear-gradient-13);
      }
    </style>
    <linearGradient id="linear-gradient" x1="134.51" y1="261.5" x2="134.61" y2="261.5" gradientUnits="userSpaceOnUse">
      <stop offset="0" stop-color="#23ae00"/>
      <stop offset="1" stop-color="#97ff5a"/>
    </linearGradient>
    <linearGradient id="linear-gradient-2" x1="14.17" y1="139.49" x2="14.27" y2="139.49" xlink:href="#linear-gradient"/>
    <linearGradient id="linear-gradient-3" x1="16.16" y1="55.96" x2="16.47" y2="55.96" xlink:href="#linear-gradient"/>
    <linearGradient id="linear-gradient-4" x1="14.85" y1="56.8" x2="15.27" y2="56.8" xlink:href="#linear-gradient"/>
    <linearGradient id="linear-gradient-5" x1="0" y1="144.34" x2="210.19" y2="144.34" xlink:href="#linear-gradient"/>
    <linearGradient id="linear-gradient-6" x1="204.39" y1="129.16" x2="204.47" y2="129.16" xlink:href="#linear-gradient"/>
    <linearGradient id="linear-gradient-7" x1="54.65" y1="19.93" x2="54.71" y2="19.93" xlink:href="#linear-gradient"/>
    <linearGradient id="linear-gradient-8" x1="54.71" y1="19.95" x2="54.72" y2="19.95" xlink:href="#linear-gradient"/>
    <linearGradient id="linear-gradient-9" x1="82.04" y1="10.13" x2="82.45" y2="10.13" xlink:href="#linear-gradient"/>
    <linearGradient id="linear-gradient-10" x1="46.56" y1="212.91" x2="47.14" y2="212.91" xlink:href="#linear-gradient"/>
    <linearGradient id="linear-gradient-11" x1="112.25" y1="230.1" x2="112.25" y2="148.29" gradientUnits="userSpaceOnUse">
      <stop offset=".01" stop-color="#d1efac"/>
      <stop offset=".99" stop-color="#fff"/>
    </linearGradient>
    <linearGradient id="linear-gradient-12" x1="96.97" y1="124.71" x2="96.97" y2="30.08" xlink:href="#linear-gradient-11"/>
    <linearGradient id="linear-gradient-13" x1="106.19" y1="172.94" x2="106.19" y2="71.8" xlink:href="#linear-gradient-11"/>
    <linearGradient id="linear-gradient-14" x1="101.09" y1="330.59" x2="101.09" y2="67.28" xlink:href="#linear-gradient-11"/>
    <linearGradient id="linear-gradient-15" x1="15.06" y1="56.93" x2="15.06" y2="56.68" xlink:href="#linear-gradient-11"/>
  </defs>
  <g class="cls-5">
    <g id="Capa_2" data-name="Capa 2">
      <g id="Layer_1" data-name="Layer 1">
        <g>
          <g>
            <path class="cls-14" d="m134.55,261.44c-.01.05-.03.1-.04.16.04-.06.07-.13.1-.2-.02,0-.03,0-.04.01,0,.01-.01.02-.02.03Z"/>
            <path class="cls-1" d="m14.27,139.23v.03c-.03.16-.07.33-.1.5-.02.03,0-.09.1-.53Z"/>
            <path class="cls-13" d="m16.47,55.74c-.05.09-.11.19-.16.28-.03.04-.1.1-.16.17,0-.13.17-.32.32-.44Z"/>
            <path class="cls-15" d="m14.85,56.93c.71-.43.37-.2,0,0h0Z"/>
            <path class="cls-8" d="m204.92,158.2c-2.73,3.62-6.12,6.58-9.17,9.89-.75.81-1.45,1.66-2.16,2.5-.02.02-.03.04-.05.06-.11.16-.22.31-.33.46-.28.42-.55.84-.8,1.27-1.26,2.18-2.16,4.57-3.36,6.79-1.89,3.5-4.33,6.86-7.83,8.73-.49.26-1,.51-1.51.74-.98,3.35-2.57,6.37-4.75,9.05-.28.34-.57.68-.87,1.01,1.37,1.86,2.18,4.15,2.13,6.85-.1,4.66-2.5,9.04-4.85,12.85-1.92,3.12-4.14,6.08-5.85,9.34-.15.28-.29.58-.43.88-.35,1.38-.88,2.7-1.19,4.09-.11.48-.2.96-.29,1.45,0,.03-.02.16-.04.3-.01.27-.06.96-.07,1.12-.05,1.2.02,2.39.12,3.59.01.15.02.27.03.36,0,.03,0,.07.02.11.05.28.1.56.16.83.13.57.31,1.13.5,1.68.31.9.72,1.78.96,2.72.91,3.53.18,6.79-1.2,10.05-1.99,4.72-5.56,9.48-10.73,10.37-4.17.72-7.88-.6-11.7-2.18-1.7-.71-3.41-1.28-5.18-1.77-.04,0-.07-.02-.1-.03h-.07c-.44-.02-.89,0-1.33-.02-.02,0-.03,0-.05,0-.02,0-.03.01-.05.02-.03.01-.14.04-.27.07.01-.02.02-.04.03-.06-.01,0-.02.02-.04.02-.01.02-.02.04-.03.05,0,0,0,0,0,0,0,0,0,.02,0,.02-.03.05-.07.1-.08.14-.23.4-.1.26.04.02-.06.22-.12.44-.13.48-.03.12-.05.23-.07.35.02.27-.11.9-.12,1.08-.06.9-.07,1.8-.07,2.7-.02,4.17.22,8.59-1.16,12.58-1.24,3.58-5.06,5.7-8.47,3.6-3.03-1.88-4.36-4.55-5.3-7.53-1.83-.4-3.65-1.03-5.46-1.44-.54,1.94-2.01,3.52-3.99,4.2-.93.31-1.91.31-2.83.06.25,1.67.4,3.36.37,5-.05,3.37-2.6,5.86-5.77,6.01-.24.01-.48,0-.71-.03-2.78-.3-5.1-3.08-5.06-5.98,0-.53-.01-1.06-.05-1.59-.02-.26-.05-.52-.07-.79-.26-1.39-.48-2.78-.84-4.15-.12-.44-.25-.88-.39-1.3-1.9,2.98-4.16,5.84-7.65,6.74-3.78.99-7.1-1.85-7.3-5.79-.12-2.36-.18-4.72-.38-7.08-.02-.27-.03-.56-.06-.86-.05-.18-.1-.36-.13-.48-.03-.15-.07-.3-.12-.46-.62.02-1.31.06-1.41.07-.14.01-.28.03-.41.05-.06,0-.14.02-.23.03-.67.15-1.35.27-2.02.42-2.8.63-6.54-.88-7.09-4.2-.64-3.81-.02-7.05.99-10.5-.15,0-.31-.02-.47-.02-3.98-.12-5.96-3.5-5.6-7.23-.27-.39-.53-.81-.78-1.24-.35-.64-.66-1.3-1-1.94-.05-.08-.13-.2-.21-.33-1.43.14-2.76.06-4.22-.38-.15.02-.35-.02-.49-.01-.45.02-.91.04-1.36.02-1.78-.1-3.3-.53-4.9-1.31-2.99-1.46-5.53-3.94-7.33-6.81-.5-.8-.96-1.69-1.37-2.65-.97-2.32-1.59-5-1.58-7.59.01-2.77.74-5.43,2.54-7.39.68-.74,1.57-1.39,2.47-1.84.11-.03,1.47-.62,2.3-.97-.1.07-.09.08.19-.08.27-.12.46-.2.46-.2,0-.02-.03-.02-.06-.02.05-.02.1-.05.16-.08.53-.31,1.19-1.16.38-.17.26-.32.6-.6.88-.9.06-.07.11-.14.14-.19.05-.08.09-.16.13-.24-.07-.12-.13-.25-.2-.37-.26-.44-.54-.86-.82-1.28-1.56-2.38-2.88-4.68-3.8-7.43-.67-1.98.1-4.41,1.48-5.85,1.45-1.51,3.25-1.87,5.16-1.61v-.02s-.03,0,0,0c-.02-.42-.05-.84-.07-1.27.06,1.72-.15-.73-.26-1.24-.3-1.42-.96-3.79-1.27-4.51-.45-1.06-1.82-3.39-2.81-4.84-.09-.14-.15-.22-.19-.28,0,0-.03-.03-.12-.14-.31-.38-.61-.76-.92-1.14-.63-.76-1.28-1.5-1.94-2.24-.2-.22-.4-.43-.61-.65-.91.2-1.89.22-2.81.06-5.92-1.02-11.53-3.45-17.15-5.54-3.8-1.42-5-5.1-3.44-8.83.56-1.35,1.43-2.5,2.42-3.53-1.8-.67-3.54-1.52-5.08-2.67-4.6-3.44-7.37-10.1-3.77-15.41-.18.26,1.48-1.71,1.52-2.02,0-.04-.08.1-.17.26h0c-.17.28-.37.63-.2.22.06-.14.15-.3.24-.46.05-.16.1-.33.13-.47,0-.05.02-.1.02-.14.03-.05.09-.31.1-.5h0c.01-.06.02-.1.03-.15-.01.04-.02.08-.03.12.02-.5.03-1,.03-1.51,0-.06,0-.1,0-.14,0,0,0-.02-.01-.03-.09-.3-.18-.62-.26-.94-.02-.03-.05-.06-.07-.11-.09-.14-.4-.6-.54-.81-.06-.07-.11-.12-.14-.16-.5-.56-1.04-1.07-1.61-1.57-.22-.19-.45-.41-.69-.61-.08-.06-.2-.15-.37-.28-.92-.74-1.85-1.47-2.76-2.23-3.52-2.96-6.09-6.6-7.62-11.05-.86-2.49.6-5.51,2.65-6.79,2.97-1.84,6.3-2.94,9.4-4.53-.89-2.22-.5-5.25,1.27-6.9-.32-.32-.64-.65-.96-.98-1.91-1.95-3.74-4-5.22-6.33-1.65-2.61-2.41-5.62-3.05-8.64-.95-4.5-1.03-10.03,3.13-12.81.27-.18.55-.35.83-.5h0c-.02-.47-.07-.48-.04-.21-.05-.26-.09-.51-.14-.76-.12-.63-.25-1.26-.36-1.9-.32-1.85-.56-3.72-.59-5.61-.04-2.61,1.82-5.14,4.23-5.79,1.06-.29,2.12-.6,3.15-.98.09-.04.2-.09.3-.14-.07.04-.14.08-.22.13.3-.18.64-.31.94-.5.19-.1.37-.22.55-.34.01-.01.03-.02.04-.04v.02s.07-.05.1-.07c.02-.04.03-.07.06-.11.03-.02.04-.04.05-.05.06-.05.11-.1.15-.14,0-.04.02-.09.03-.14-.02.02-.05.04-.07.06.04-.07.07-.14.1-.18.1-.38.22-.74.3-1.12.08-.37.13-.74.21-1.11,0-.02.01-.04.02-.06.15-1.72.27-3.43.35-5.16.17-3.62.38-7.54,2.1-10.78,1.29-2.44,3.72-4.12,6.42-4.18,1.57-.04,3.01.5,4.31,1.33.27-.46.52-.94.76-1.41,1.81-3.52,3.13-7.35,5.39-10.59,2.87-4.11,7.67-7.86,12.82-5.88,1.5.58,2.7,1.37,3.99,2.33.46.34.94.65,1.4.99-.31-.09-.38.09-.03.06h0s.06,0,.09-.01h0s.03,0,.04,0c0,0-.02,0-.02,0-.02-.01-.05-.02-.07-.03-.06-.05-.07-.07.09.02,0,0,.01,0,.02.01.05,0,.1-.02.16-.04.14-.04.2-.06.2-.06.05,0,.09-.02.13-.03.05-.02.1-.05.15-.07.05-.07.12-.15.21-.26.19-.22.38-.48.59-.67.02-.01.03-.02.04-.03.12-.21.23-.44.31-.57.43-.7.82-1.43,1.23-2.15,1.04-1.85,2.18-3.73,3.64-5.25,1.85-1.92,4.33-3.43,6.93-3.86,3.26-.54,5.97.22,8.9,1.66.53.26,1.05.54,1.57.81.18.09.38.17.56.27.43.12.85.3,1.28.42.09.03.33.05.51.08.1,0,.18,0,.2,0,.22-.01.44-.03.66-.04-.22.02.02.07.23.07-.13.04-.07.09.08.04.02-.02.03-.04.05-.06.02-.02.03-.04.05-.06h.05s-.05,0-.05,0c.18-.22.37-.43.56-.65,3.27-3.86,8.14-5.66,12.92-6.36.54-.08,1.09-.15,1.65-.21,6.62-.72,13.96-.02,20.4,2.51,1.92-.24,3.93.5,5.21,2.24.39-.29.78-.59,1.17-.88,3.72-2.76,7.96-5.76,12.55-6.57,5.74-1.02,10.78,1.63,13.21,7.22,1.03,2.34,1.74,4.75,2.37,7.23.57,2.22,1.44,4.46,1.91,6.7,0,0,0,.01,0,.02.13.26.24.52.37.78.22.45.48.87.73,1.29.04.07.07.12.1.18.03.02.06.05.1.09.19.18.38.39.56.58,0,.01.03.03.05.05.11.05.89.54,1.07.64-.23-.1-.78-.21.37.15.38.12.76.22,1.16.31.02,0,.2.03.36.05.23,0,.63.03.71.03.29,0,.58,0,.87,0,.78-.02,1.56-.08,2.32-.16,3.27-.32,6.35-.72,9.62-.16,1.91.32,3.84,1.03,5.65,1.78,3.35,1.37,4.97,4.13,4.4,7.85,0,.06,0,.12.01.16,0,0,0,.01,0,.02.21.53.3,1.22.45,1.77.33,1.2.6,2.42.95,3.62.07.25.17.5.25.75.05.11.1.23.15.32,1.52,2.64,3.42,4.91,4.58,7.77,1.01,2.49,1.34,5.08,2.03,7.67.2.78.48,1.53.73,2.3h0s.02.04.03.07c.14.27.26.55.41.81.09.17.2.33.29.5.22.14.75.53.91.62.38.21.77.4,1.16.59.97.48,1.95.94,2.9,1.44,2.62,1.39,5.25,3.08,7.33,5.28,3.74,3.94,4.84,9.14,3.53,14.45-1.12,4.56-3.46,8.89-5.51,13.07-.92,1.88-1.79,3.77-2.63,5.68,0,.02-.22.58-.39,1,1.34,1.93,1.99,4.04,2.23,6.27,1.13.76,2.17,1.63,3.04,2.82,2.22,3.01,2.65,6.91,1.65,10.52-.46,1.68-1.22,3.26-1.9,4.84-.07.15-.13.31-.2.46-.04.11-.08.22-.1.28-.08.3-.18.67-.29.96.03.15.04.21.02.21,0-.06-.01-.12-.03-.2-.02.04-.02.08-.03.12-.02-.05-.05-.12-.07-.2.02.08.03.17.06.25-.05.24.03.33.07.21,0-.02.01-.06.02-.1.1.2.35.8.48,1.02.71,1.22,1.54,2.35,2.28,3.55,1.81,2.92,2.71,6.04,2.92,9.5.32,5.6-2,10.65-5.23,14.94Z"/>
            <path class="cls-4" d="m204.41,129.03s-.01.04-.02.05c.02.07.04.14.06.21h0c-.05-.2-.04-.2.02-.1,0-.02,0-.05,0-.08-.01,0-.03-.03-.06-.08Z"/>
            <path class="cls-9" d="m54.71,19.95s0,0,0,0c-.01-.02-.02-.02-.04-.04,0,0,0,0-.01,0,0,0,.02,0,.02,0,.02,0,.03.02.04.03Z"/>
            <path class="cls-16" d="m54.72,19.96h0s0,0-.01,0h0s0,0,.01,0Z"/>
            <path class="cls-12" d="m82.45,10.13h0c-.14,0-.27,0-.41.01.08,0,.21-.02.41-.01Z"/>
            <path class="cls-7" d="m47.14,212.76c-.1.06-.2.11-.3.16-.03.02-.07.04-.1.06-.06.02-.12.05-.19.08.13-.09.45-.28.58-.3Z"/>
          </g>
          <path class="cls-11" d="m103.8,260.3c-.74,2.48-1.95,4.59-3.57,6.35.1.38.2.76.28,1.15.37,1.62.62,3.31.8,5.16.45,4.55-.34,9.06-.38,13.61,0,.71-.06,1.41-.16,2.08-2.78-.3-5.1-3.08-5.06-5.98,0-.53-.01-1.06-.05-1.59-.02-.26-.05-.52-.07-.79-.26-1.39-.48-2.78-.84-4.15-.12-.44-.25-.88-.39-1.3-1.9,2.98-4.16,5.84-7.65,6.74-3.78.99-7.1-1.85-7.3-5.79-.12-2.36-.18-4.72-.38-7.08-.02-.27-.03-.56-.06-.86-.05-.18-.1-.36-.13-.48-.03-.15-.07-.3-.12-.46-.62.02-1.31.06-1.41.07-.14.01-.28.03-.41.05-.06,0-.14.02-.23.03-.67.15-1.35.27-2.02.42-2.8.63-6.54-.88-7.09-4.2-.64-3.81-.02-7.05.99-10.5-.15,0-.31-.02-.47-.02-3.98-.12-5.96-3.5-5.6-7.23-.27-.39-.53-.81-.78-1.24-.35-.64-.66-1.3-1-1.94-.05-.08-.13-.2-.21-.33-1.43.14-2.76.06-4.22-.38-.15.02-.35-.02-.49-.01-.45.02-.91.04-1.36.02-1.78-.1-3.3-.53-4.9-1.31-2.99-1.46-5.53-3.94-7.33-6.81-.5-.8-.96-1.69-1.37-2.65-.65-2.5-1.14-5.04-1.58-7.59.01-2.77.74-5.43,2.54-7.39.68-.74,1.57-1.39,2.47-1.84.11-.03,1.47-.62,2.3-.97.13-.09.45-.28.58-.3.05-.02.1-.05.16-.08.53-.31,1.19-1.16.38-.17.26-.32.6-.6.88-.9.06-.07.11-.14.14-.19.05-.08.09-.16.13-.24-.07-.12-.13-.25-.2-.37-.26-.44-.54-.86-.82-1.28-1.56-2.38-2.88-4.68-3.8-7.43-.67-1.98.1-4.41,1.48-5.85,1.45-1.51,3.25-1.87,5.16-1.61v-.02s-.03,0,0,0c-.02-.42-.05-.84-.07-1.27.06,1.72-.15-.73-.26-1.24-.3-1.42-.96-3.79-1.27-4.51-.45-1.06-1.82-3.39-2.81-4.84-.09-.14-.15-.22-.19-.28,0,0-.03-.03-.12-.14-.31-.38-.61-.76-.92-1.14-.63-.76-1.28-1.5-1.94-2.24-.2-.22-.4-.43-.61-.65-.91.2-1.89.22-2.81.06-5.92-1.02-11.53-3.45-17.15-5.54-3.8-1.42-5-5.1-3.44-8.83.56-1.35,1.43-2.5,2.42-3.53-1.8-.67-3.54-1.52-5.08-2.67-4.6-3.44-7.37-10.1-3.77-15.41-.18.26,1.48-1.71,1.52-2.02,0-.04-.08.1-.17.26h0c-.17.28-.37.63-.2.22.06-.14.15-.3.24-.46.05-.16.1-.33.13-.47,0-.05.02-.1.02-.14-.02.03,0-.09.1-.53.02-.5.03-1,.03-1.51,0-.06,0-.1,0-.14,0,0,0-.02-.01-.03-.09-.3-.18-.62-.26-.94-.02-.03-.05-.06-.07-.11-.09-.14-.4-.6-.54-.81-.06-.07-.11-.12-.14-.16-.5-.56-1.04-1.07-1.61-1.57-.22-.19-.45-.41-.69-.61-.08-.06-.2-.15-.37-.28-.92-.74-1.85-1.47-2.76-2.23-3.52-2.96-6.09-6.6-7.62-11.05-.86-2.49.6-5.51,2.65-6.79,2.97-1.84,6.3-2.94,9.4-4.53-.89-2.22-.5-5.25,1.27-6.9-.32-.32-.64-.65-.96-.98-1.91-1.95-3.74-4-5.22-6.33-1.65-2.61-2.41-5.62-3.05-8.64-.95-4.5-1.03-10.03,3.13-12.81.27-.18.55-.35.83-.5,0-.05-.01-.09-.02-.14,0-.03,0-.05-.01-.08-.05-.26-.09-.51-.14-.76-.12-.63-.25-1.26-.36-1.9-.32-1.85-.56-3.72-.59-5.61-.04-2.61,1.82-5.14,4.23-5.79,1.06-.29,2.12-.6,3.15-.98.09-.04.2-.09.3-.14-.07.04-.14.08-.22.13.3-.18.64-.31.94-.5.19-.1.37-.22.55-.34.01-.01.03-.02.04-.04,0-.13.17-.32.32-.44.04-.07.07-.14.1-.18.1-.38.22-.74.3-1.12.08-.37.13-.74.21-1.11,0-.02.01-.04.02-.06.15-1.72.27-3.43.35-5.16.17-3.62.38-7.54,2.1-10.78,1.29-2.44,3.72-4.12,6.42-4.18,1.57-.04,3.01.5,4.31,1.33.27-.46.52-.94.76-1.41,1.81-3.52,3.13-7.35,5.39-10.59,2.87-4.11,7.67-7.86,12.82-5.88,1.5.58,2.7,1.37,3.99,2.33.46.34.94.65,1.4.99,0,0,.02,0,.02,0-.06-.05-.07-.07.09.02.04,0,.07-.02.12-.03.04,0,.07-.01.11-.03.03,0,.06-.01.09-.02h.05s.01-.02.02-.02c.05,0,.09-.02.13-.03.05-.02.1-.05.15-.07.05-.07.12-.15.21-.26.19-.22.38-.48.59-.67.02-.01.03-.02.04-.03.12-.21.23-.44.31-.57.43-.7.82-1.43,1.23-2.15.58-1.04,1.2-2.09,1.89-3.09.53-.77,1.11-1.5,1.75-2.17,1.85-1.92,4.33-3.43,6.93-3.86,3.26-.54,5.97.22,8.9,1.66.53.26,1.05.54,1.57.81.18.09.38.17.56.27.43.12.85.3,1.28.42.09.03.33.05.51.08.1,0,.18,0,.2,0,.22-.01.44-.03.66-.04.08,0,.21-.02.41-.01.18-.22.37-.43.56-.65,3.27-3.86,8.14-5.66,12.92-6.36.54-.08,1.09-.15,1.65-.21-.06.17-.12.35-.19.53-.63,10.09-2.69,20.04-4.12,30.04-1.06,9.68-.76,19.46-1.39,29.18-.66,10.27-1.55,20.51-1.56,30.81,0,2.48-.59,4.76-1.6,6.77.37,5.71.24,11.41.03,17.18-.26,7.5-.1,15.02.36,22.51,3.75,2.8,6.3,7.48,6.22,12.29-.01.82.02,1.63.07,2.44.43,2.43.98,4.83,1.4,7.26.73,4.23,1.04,8.48,1.4,12.75.56,6.66,1.21,13.32,1.04,20.01-.04,1.36-.23,2.66-.56,3.89,1.73,7.22,3.41,14.45,4.49,21.8,1,6.75,1.72,13.61,2.15,20.43.4,6.43.32,13.32-1.54,19.51Z"/>
          <g>
            <path class="cls-6" d="m161.47,191.68c1.23-4.64,2.2-9.36,4.2-13.78-.33.12-.63.35-.87.74-6.44,10.9-8.95,24.79-18.15,33.8-3.5,3.43-8.4,4.48-13.03,5.02-4.5.52-9.05.62-13.52,1.38,2.62-2.33,5.3-4.6,7.89-6.96,3.95-3.6,7.72-7.49,10.58-12.11,3-4.84,4.53-10.18,5.42-15.83,1.05-6.7,1.85-13.82,4.26-20,.94-5.99,5.56-11.46,10.36-14.89-.45-.66-1.28-1.04-2.15-.5-4.54,2.78-8.16,6.75-10.46,11.7-2.23,4.79-3.29,10.01-4.12,15.23-.86,5.44-1.3,11.07-3.15,16.26-1.85,5.2-5.09,9.65-8.82,13.54-3.74,3.9-7.92,7.3-11.94,10.87-1.87,1.66-3.71,3.36-5.48,5.12-.38.2-.76.42-1.13.65.14-7.23,1.35-13.82,4.63-20.31,4.03-7.97,6.31-16.27,4.58-25.48-.45.17-.62.56-.68,1.07-.49,4.38-.76,8.85-2.09,13.07-1.29,4.1-3.87,7.66-5.66,11.53-3.13,6.73-4.12,13.72-4.16,21.15,0,.55.2.97.51,1.25-.37.37-.72.77-1.06,1.19-.27.05-.53.06-.8.02-1.96-.3-3.97-2.08-5.71-2.97-1.95-1-4.07-1.68-6-2.74-3.85-2.11-3.88-8.54-4.27-12.41-.33-3.28-1.16-6.26-3.14-8.88-1.89-2.48-4.29-4.56-6.77-6.37-5.15-3.75-11.56-6.78-17.97-6.5-.43.02-.77.13-.96.52,2.91,1.24,6.05,1.78,8.94,3.26,5.15,2.62,11.71,7.15,14.84,12.27,1.57,2.56,1.67,5.52,1.95,8.45.05.56.12,1.14.2,1.74-4.44-.98-9.36.59-13.72,1.24-2.6.39-5.31.64-7.91.14-3.1-.61-4.58-2.64-7.09-4.08-.23.36-.23.75-.09,1.17,1.9,5.88,7.3,7.05,12.66,6.57,2.93-.26,5.82-.86,8.73-1.32,2.36-.38,4.98-.84,7.32-.15.28.08.55.09.78.04.73,2.85,2,5.56,4.32,7.06,1.6,1.02,3.48,1.58,5.18,2.38,2.24,1.06,4.3,2.5,6.56,3.51.45.2.88.34,1.3.42.31,1.3,2.24,2.02,3.09.53.22-.38.45-.74.7-1.08,1.85-.92,3.47-2.63,5.03-4.2,6.07-2.99,14.4-2.38,20.56-3.22,4.66-.65,9.34-1.88,13.03-5.08,4.68-4.06,7.82-9.95,10.41-15.58,1.25-2.72,2.1-5.56,2.86-8.41Z"/>
            <path class="cls-17" d="m138.5,63.2c.31-2.46.44-4.9.38-7.28-.07-2.52-.22-5.05-.27-7.58,0-.37-1.43,1.01-1.52,1.19-.36.72-.12,2.24-.17,3.04-.4,5.4-1.64,10.67-3.18,15.83-1.42,4.72-3.16,9.81-5.93,13.99,0-.26-.01-.52-.02-.77-.23-7.83-1.57-15.52-2.13-23.32-.34-4.72-.26-9.51.68-14.15.45-2.22,1.1-4.39,1.98-6.47.65-1.54,3.14-4.65,2.95-6.08-1.81.45-3.84,4.22-4.88,5.85-3.09,4.85-4.24,9.05-4.28,14.86-.06,7.71,1.32,15.31,1.98,22.96.51,5.91,1.21,12.81-1.05,18.44-1.09,2.72-2.87,4.8-4.99,6.5-.08-3.83-.42-7.7-1.5-11.37-1.1-3.74-2.96-7.15-5.11-10.33-2.7-3.98-5.95-7.46-7.4-12.2-1.58-5.16-1.26-10.85-1.38-16.3-.12-5.26-.72-10.97-1.58-16.15-.45-.17-.78.08-1,.56-.19.42-.21.9-.23,1.37-.16,4.64-.46,9.28-.63,13.92-.18,4.92.84,9.72.84,14.54.98,4.88,3.16,8.71,6.05,12.6,2.44,3.28,4.88,6.72,6.42,10.59,1.84,4.61,2.18,9.6,2.2,14.54,0,.17.03.32.07.47-2.01,1.18-4.14,2.18-6.18,3.15-3.81,1.8-7.17,3.98-10.26,6.94-2.65,2.53-5.08,5.3-7.91,7.6-7.15-10.23-12.8-21.63-18.87-32.55-2.84-5.1-5.28-10.56-4.99-16.59.29-6.12,3.31-11.62,4.85-17.45-.03-4.34-.17-8.62.34-12.93.23-1.92.47-3.85.48-5.79,0-.48-.06-.96-.04-1.43,0-.01,0-.02,0-.03-.86-3.15-1.8-1.44-2.09.93-.68,5.73-.28,11.32-1.59,17-1.44,6.21-4.53,11.89-5.2,18.29-.31,2.96-.02,5.84.66,8.64-2.63-3.08-4.53-6.56-5.21-10.8-.5-3.17-.5-6.4-.43-9.6.05-2.24,1.33-6.14-.25-7.95-1.3,3.67-2.12,8.46-2.7,12.37-.07.44-.18.85-.34,1.24.08,1.77.25,3.54.55,5.28.76,4.32,2.86,8.2,5.61,11.49,1.25,1.49,2.85,2.54,4.23,3.88,1.62,1.57,2.07,3.03,2.97,5.03,2.28,5.04,5.57,9.78,8.23,14.63,3.52,6.42,7.13,12.81,11.34,18.77-.21,1.27.96,2.68,2.25,1.98.85.02,1.69-.57,1.83-1.35,5.44-4.33,9.6-10.18,15.85-13.43,6.08-3.16,12.64-5.53,16.61-11.67,1.95-3.02,2.8-6.52,3.11-10.09.11-.08.22-.17.33-.29,5.78-6.4,9.39-15.51,10.52-24.5Z"/>
            <path class="cls-18" d="m178.31,119.81c-.58.37-1.07.69-1.21.8-1.63,1.34-2.47,3.22-3.89,4.7-1.36,1.42-3.19,2.33-4.67,3.62-4.15,3.62-9.18,3.59-14.26,4.5-9.18,1.64-17.37,6.04-25.14,11.16,3.08-9.39,4.99-19.41,11.99-26.53,5.85-5.95,16.25-7.19,20.11-15.27,1.03-2.14,1.64-4.51,2.04-6.94.15-.1.29-.22.42-.39.74-.94,1.59-1.71,2.51-2.36.09-.12.18-.24.28-.34,2.01-2.23,4.28-4.24,6.67-6.04-.48-.39-1.13-.55-1.82-.2-2.55,1.29-5.22,2.34-7.48,4.03.04-.56.08-1.11.11-1.66.28-4.41.52-13.38-2.61-16.77-.38.28-.52.68-.52,1.17-.02,8.53.66,17.63-1.82,25.88-2.25,7.45-10.85,9.41-16.49,13.29-6.17,4.25-9.86,10.97-12.35,18.06-1.96,5.58-3.26,11.45-5.48,16.93-.5-10.93-.49-21.78,4.78-31.66,1.28-2.4,18.26-28.52,19.86-26.77-.5-.55-1.18-.62-1.81-.17-8.68,6.21-15.86,15.65-20.95,25.18-2.77,5.19-4.42,10.66-5.08,16.56-.75,6.7-.33,13.48,0,20.19.03.62.38,1.19.87,1.51-1.84,3.24-4.22,6.14-7.15,8.37-3.77,2.85-8.1,4.13-12.4,5.78-2.83,1.09-6.35,3.48-9.5,3.08-1.36-.17-2.66-.82-3.9-1.41-2.11-1.01-4.18-2.1-6.32-3.04-7.09-3.1-15.32-4.84-21.04-10.54-6.3-6.28-7.05-15.56-9.08-23.91-1.37-5.66-.05-11.31-.65-16.97-.33-3.13-.48-6.27-.48-9.42,0-.84.57-4.1.12-4.7-.59-.8-1.3-.15-1.3.91-.02,6.88-.55,13.69-1.35,20.47-.5-.85-1.06-1.66-1.69-2.43-2.51-3.06-6.23-4.65-8.75-7.67-2.42-2.91-2.62-6.78-3.19-10.41-.59-3.72-1.37-7.43-1.74-11.19-.18-1.87-.16-3.71-.2-5.58-.03-1.47-.91-3.46-.8-4.76-.79,9.71-2.63,21.33,1.21,30.57,1.48,3.55,4.22,5.77,7.16,7.95,3.46,2.57,5.76,5.64,7.19,9.83-.23,1.67-.48,3.34-.73,5.01-1.89-.61-3.82-1.08-5.71-1.7-2.09-.69-5.14-1.55-6.14-3.82-.35-.8-1.01-1.01-1.62-.85.17-.04,2.88,4.96,3.3,5.41,1.9,2.01,4.33,3.46,6.95,4.17,1.63.44,4.03-.39,5.47.65,1.75,1.26,1.95,5.81,2.53,7.85.88,3.12,2.03,6.16,3.78,8.86,4.79,7.45,12.61,10.49,20.36,13.43,4.1,1.55,7.97,3.52,11.96,5.33,2.85,1.3,5.42,1.9,8.46.91,1.84-.6,3.6-1.45,5.39-2.18,2.27-.92,4.6-1.66,6.87-2.55,4.27-1.68,8.19-4.08,11.4-7.5,2.8-2.98,4.75-6.42,6.31-10.1,9.41-6.51,19.31-12.43,30.77-13.73,5.01-.57,9.5-1.75,13.37-5.29,3.66-3.36,6.24-7.9,9.1-11.97.16-.22.26-.44.19-.71,0,0-1.23.75-2.22,1.38Z"/>
          </g>
          <path class="cls-3" d="m113.6,227.25c-.95-16.85-4.3-33.14-7.66-49.61-3.83-18.75-7.18-37.63-9.31-56.68-1.09-9.8-1.87-19.64-2.22-29.51-.2-5.76,2.48-20.95-2.31-24.18-4.77,8.71-3.09,20.51-3.52,30.16-.49,11-.47,22.03.07,33.02,1.53,31.08,10.56,60.61,13.05,91.42.65,8.09.87,16.23.61,24.35-.25,8.09-.94,15.79-2.19,23.3-1.55,9.35-3.78,18.55-4.94,27.97-1.18,9.59-.88,19.23,1.48,28.62.76,3.04,4.16,5.19,7.1,4.2,3.01-1.02,4.85-4.14,4.03-7.39-3.95-15.77-.13-30.88,2.86-46.81,3.02-16.07,3.88-32.56,2.95-48.89Z"/>
          <path class="cls-2" d="m14.85,56.93c.71-.43.37-.2,0,0h0Z"/>
          <path class="cls-10" d="m100.93,286.57c0,.71-.06,1.41-.16,2.08-2.78-.3-5.1-3.08-5.06-5.98,0-.53-.01-1.06-.05-1.59-.02-.26-.05-.52-.07-.79-.26-1.39-.48-2.78-.84-4.15-.12-.44-.25-.88-.39-1.3-1.9,2.98-4.16,5.84-7.65,6.74-3.78.99-7.1-1.85-7.3-5.79-.12-2.36-.18-4.72-.38-7.08-.02-.27-.03-.56-.06-.86-.05-.18-.1-.36-.13-.48-.03-.15-.07-.3-.12-.46-.62.02-1.31.06-1.41.07-.14.01-.28.03-.41.05-.06,0-.14.02-.23.03-.67.15-1.35.27-2.02.42-2.8.63-6.54-.88-7.09-4.2-.64-3.81-.02-7.05.99-10.5-.15,0-.31-.02-.47-.02-3.98-.12-5.96-3.5-5.6-7.23-.27-.39-.53-.81-.78-1.24-.35-.64-.66-1.3-1-1.94-.05-.08-.13-.2-.21-.33-1.43.14-2.76.06-4.22-.38-.15.02-.35-.02-.49-.01-.45.02-.91.04-1.36.02-1.78-.1-3.3-.53-4.9-1.31-2.99-1.46-5.53-3.94-7.33-6.81-.5-.8-.96-1.69-1.37-2.65-.65-2.5-1.14-5.04-1.58-7.59.01-2.77.74-5.43,2.54-7.39.68-.74,1.57-1.39,2.47-1.84.11-.03,1.47-.62,2.3-.97.13-.09.45-.28.58-.3.05-.02.1-.05.16-.08.53-.31,1.19-1.16.38-.17.26-.32.6-.6.88-.9.06-.07.11-.14.14-.19.05-.08.09-.16.13-.24-.07-.12-.13-.25-.2-.37-.26-.44-.54-.86-.82-1.28-1.56-2.38-2.88-4.68-3.8-7.43-.67-1.98.1-4.41,1.48-5.85,1.45-1.51,3.25-1.87,5.16-1.61v-.02s-.03,0,0,0c-.02-.42-.05-.84-.07-1.27.06,1.72-.15-.73-.26-1.24-.3-1.42-.96-3.79-1.27-4.51-.45-1.06-1.82-3.39-2.81-4.84-.09-.14-.15-.22-.19-.28,0,0-.03-.03-.12-.14-.31-.38-.61-.76-.92-1.14-.63-.76-1.28-1.5-1.94-2.24-.2-.22-.4-.43-.61-.65-.91.2-1.89.22-2.81.06-5.92-1.02-11.53-3.45-17.15-5.54-3.8-1.42-5-5.1-3.44-8.83.56-1.35,1.43-2.5,2.42-3.53-1.8-.67-3.54-1.52-5.08-2.67-4.6-3.44-7.37-10.1-3.77-15.41-.18.26,1.48-1.71,1.52-2.02,0-.04-.08.1-.17.26h0c-.17.28-.37.63-.2.22.06-.14.15-.3.24-.46.05-.16.1-.33.13-.47,0-.05.02-.1.02-.14-.02.03,0-.09.1-.53.02-.5.03-1,.03-1.51,0-.06,0-.1,0-.14,0,0,0-.02-.01-.03-.09-.3-.18-.62-.26-.94-.02-.03-.05-.06-.07-.11-.09-.14-.4-.6-.54-.81-.06-.07-.11-.12-.14-.16-.5-.56-1.04-1.07-1.61-1.57-.22-.19-.45-.41-.69-.61-.08-.06-.2-.15-.37-.28-.92-.74-1.85-1.47-2.76-2.23-3.52-2.96-6.09-6.6-7.62-11.05-.86-2.49.6-5.51,2.65-6.79,2.97-1.84,6.3-2.94,9.4-4.53-.89-2.22-.5-5.25,1.27-6.9-.32-.32-.64-.65-.96-.98-1.91-1.95-3.74-4-5.22-6.33-1.65-2.61-2.41-5.62-3.05-8.64-.95-4.5-1.03-10.03,3.13-12.81.27-.18.55-.35.83-.5,0-.05-.01-.09-.02-.14,0-.03,0-.05-.01-.08-.05-.26-.09-.51-.14-.76-.12-.63-.25-1.26-.36-1.9-.32-1.85-.56-3.72-.59-5.61-.04-2.61,1.82-5.14,4.23-5.79,1.06-.29,2.12-.6,3.15-.98.09-.04.2-.09.3-.14-.07.04-.14.08-.22.13.3-.18.64-.31.94-.5.19-.1.37-.22.55-.34.01-.01.03-.02.04-.04,0-.13.17-.32.32-.44.04-.07.07-.14.1-.18.1-.38.22-.74.3-1.12.08-.37.13-.74.21-1.11,0-.02.01-.04.02-.06.15-1.72.27-3.43.35-5.16.17-3.62.38-7.54,2.1-10.78,1.29-2.44,3.72-4.12,6.42-4.18,1.57-.04,3.01.5,4.31,1.33.27-.46.52-.94.76-1.41,1.81-3.52,3.13-7.35,5.39-10.59,2.87-4.11,7.67-7.86,12.82-5.88,1.5.58,2.7,1.37,3.99,2.33.46.34.94.65,1.4.99,0,0,.02,0,.02,0-.06-.05-.07-.07.09.02.04,0,.07-.02.12-.03.04,0,.07-.01.11-.03.03,0,.06-.01.09-.02h.05s.01-.02.02-.02c.05,0,.09-.02.13-.03.05-.02.1-.05.15-.07.05-.07.12-.15.21-.26.19-.22.38-.48.59-.67.02-.01.03-.02.04-.03.12-.21.23-.44.31-.57.43-.7.82-1.43,1.23-2.15.58-1.04,1.2-2.09,1.89-3.09-.02,1.17-.2,2.28-.58,3.23-1.74,4.45-3.58,8.74-6.09,12.78-2.4,3.86-5.16,7.5-7.96,11.05-8.69,11.03-18.97,19.14-17.76,35.14,1.1,14.51,11.31,27.78,9.28,42.17-.73,5.21-3.05,10.02-4.27,15.12-6.22,26.03,24.93,35.84,33.11,55.17,7.79,18.42-2.19,37.07,11.42,54,.18.22.36.45.55.67,3.68,3.22,7.59,6.12,11.03,9.64,4.6,4.69,8.86,10.06,12.1,15.86.37,1.62.62,3.31.8,5.16.45,4.55-.34,9.06-.38,13.61Z"/>
        </g>
      </g>
    </g>
  </g>
</svg>