<?xml version="1.0" encoding="UTF-8"?>
<svg id="Capa_1" data-name="Capa 1" xmlns="http://www.w3.org/2000/svg" viewBox="0 0 512 512">
  <defs>
    <style>
      .cls-1 {
        fill: #40b554;
      }
    </style>
  </defs>
  <path class="cls-1" d="m512,32c0,113.6-84.6,207.5-194.2,222-7.1-53.4-30.6-101.6-65.3-139.3C290.8,46.3,364,0,448,0h32C497.7,0,512,14.3,512,32ZM0,96c0-17.7,14.3-32,32-32h32c123.7,0,224,100.3,224,224v192c0,17.7-14.3,32-32,32s-32-14.3-32-32v-160C100.3,320,0,219.7,0,96Z"/>
</svg>