<?xml version="1.0" encoding="UTF-8"?>
<svg id="Capa_1" data-name="Capa 1" xmlns="http://www.w3.org/2000/svg" viewBox="0 0 384 512">
  <defs>
    <style>
      .cls-1 {
        fill: #40b554;
      }
    </style>
  </defs>
  <path class="cls-1" d="m41,0C23.3,0,9,14.3,9,32s14.3,32,32,32v11c0,42.4,16.9,83.1,46.9,113.1l67.8,67.9-67.8,67.9c-30,30-46.9,70.7-46.9,113.1v11c-17.7,0-32,14.3-32,32s14.3,32,32,32h320c17.7,0,32-14.3,32-32s-14.3-32-32-32v-11c0-42.4-16.9-83.1-46.9-113.1l-67.8-67.9,67.9-67.9c30-30,46.9-70.7,46.9-113.1v-11c17.7,0,32-14.3,32-32S378.8,0,361.1,0H41Zm256,437v11H105v-11c0-25.5,10.1-49.9,28.1-67.9l67.9-67.8,67.9,67.9c18,18,28.1,42.4,28.1,67.9v-.1Z"/>
</svg>