<?xml version="1.0" encoding="UTF-8"?>
<svg id="Capa_1" data-name="Capa 1" xmlns="http://www.w3.org/2000/svg" viewBox="0 0 384 512">
  <defs>
    <style>
      .cls-1 {
        fill: #40b554;
      }
    </style>
  </defs>
  <path class="cls-1" d="m192,512C86,512,0,426,0,320,0,228.8,130.2,57.7,166.6,11.7,172.6,4.2,181.5,0,191.1,0h1.8C202.5,0,211.4,4.2,217.4,11.7c36.4,46,166.6,217.1,166.6,308.3,0,106-86,192-192,192Zm-96-176c0-8.8-7.2-16-16-16s-16,7.2-16,16c0,61.9,50.1,112,112,112,8.8,0,16-7.2,16-16s-7.2-16-16-16c-44.2,0-80-35.8-80-80Z"/>
</svg>