<?xml version="1.0" encoding="UTF-8"?>
<svg xmlns="http://www.w3.org/2000/svg" viewBox="0 0 450 134.14">
  <defs>
    <style>
      .cls-1 {
        fill: #edb374;
      }

      .cls-2 {
        fill: #faecd0;
      }

      .cls-3 {
        fill: #e39a3e;
      }

      .cls-4 {
        fill: #8d6e43;
      }

      .cls-5 {
        fill: #366b00;
      }

      .cls-6 {
        fill: #4a4a4a;
      }

      .cls-7 {
        fill: #fcc072;
      }

      .cls-8 {
        isolation: isolate;
      }

      .cls-9 {
        fill: #a8916f;
      }

      .cls-10 {
        fill: #93d700;
      }

      .cls-11 {
        fill: #d9c5ae;
        opacity: .65;
      }

      .cls-11, .cls-12 {
        mix-blend-mode: multiply;
      }

      .cls-13 {
        fill: #7dcef1;
      }

      .cls-14 {
        fill: #d5d8cd;
      }

      .cls-15 {
        fill: #f0aa54;
      }

      .cls-16 {
        fill: #66a200;
      }

      .cls-17 {
        fill: #e7e9e3;
      }

      .cls-12 {
        opacity: .5;
      }

      .cls-12, .cls-18 {
        fill: #ccd1c3;
      }

      .cls-19 {
        fill: #457e00;
      }
    </style>
  </defs>
  <g class="cls-8">
    <g id="Capa_2" data-name="Capa 2">
      <g id="Layer_1" data-name="Layer 1">
        <g>
          <rect class="cls-6" y="75.18" width="37.75" height="9.34"/>
          <g>
            <path class="cls-5" d="m18.34,80.91c-.13-5.59-1.61-9.82-1.61-9.82,1.58,2.64,2.54,9.13,2.57,9.82h-.96Z"/>
            <path class="cls-19" d="m19.65,80.91c.13-5.59,1.61-9.82,1.61-9.82-1.58,2.64-2.45,9.13-2.48,9.82h.87Z"/>
            <path class="cls-10" d="m20.71,72.81s-4.31-4.34,3.32-5.2c7.63-.87,8.25,2.39,4.13,3.95-4.13,1.56-5.8-2.3-7.45,1.26Z"/>
            <path class="cls-16" d="m25.99,70.6c-.92,0-1.8-.13-2.69-.36-.46-.12-1.32-.48-1.78-.17-.73.48-.78,1.64-.79,2.44,0,.1-.01.2-.03.29,0,0,0,0,0,0,1.65-3.56,3.32.3,7.45-1.26,1.88-.71,2.77-1.77,2.46-2.64-1.3,1.03-2.86,1.68-4.63,1.68Z"/>
            <path class="cls-10" d="m17.18,72.22s5.26-5.21,2.93-6.95c-2.34-1.73-4.92-.92-2.93,6.95Z"/>
            <path class="cls-16" d="m18.44,68.36c-1.41.95-.87,3.08-1.26,3.85.85-.88,4.85-4.98,3.05-6.84-.01.05-.08,1.84-1.79,2.98Z"/>
            <g>
              <path class="cls-10" d="m8.59,69.57c.89.38,1.84.57,2.81.59,0,0,0,0,.01,0,1.53.03,2.61.65,4.03,1.04.05.01.09.03.14.04.44.13.93.3,1.52.54,0,0-3.41-6.7-7.07-5.42-3.25,1.14-4.79,1.77-1.43,3.2Z"/>
              <path class="cls-16" d="m8.63,69.59c.88.37,1.82.56,2.77.57,0,0,0,0,.01,0,1.53.03,2.61.65,4.03,1.04.05.01.09.03.14.04.44.13.93.3,1.52.54-1.31-1.63-3.91-3.49-5.73-3.04-1.64.41-2.87.38-4.54-.26.23.32.8.67,1.81,1.1Z"/>
            </g>
          </g>
          <rect class="cls-6" x="37.75" y="75.18" width="37.75" height="9.34"/>
          <g>
            <path class="cls-5" d="m56.95,80.91c-.12-5.05-1.45-8.87-1.45-8.87,1.43,2.38,2.3,8.24,2.32,8.87h-.87Z"/>
            <path class="cls-19" d="m58.14,80.91c.12-5.05,1.45-8.87,1.45-8.87-1.43,2.38-2.21,8.24-2.23,8.87h.78Z"/>
            <path class="cls-10" d="m59.09,73.59s-3.89-3.92,3-4.7c6.89-.78,7.45,2.16,3.73,3.56-3.73,1.4-5.24-2.08-6.72,1.13Z"/>
            <path class="cls-16" d="m63.86,71.6c-.83,0-1.62-.11-2.43-.32-.42-.11-1.19-.43-1.61-.15-.66.44-.7,1.48-.71,2.2,0,.09-.01.18-.02.26,0,0,0,0,0,0,1.48-3.21,3,.27,6.72-1.13,1.7-.64,2.5-1.6,2.22-2.38-1.17.93-2.58,1.52-4.18,1.52Z"/>
            <path class="cls-10" d="m55.91,73.06s4.75-4.71,2.64-6.27c-2.11-1.56-4.44-.83-2.64,6.27Z"/>
            <path class="cls-16" d="m57.05,69.58c-1.27.85-.79,2.78-1.14,3.48.76-.79,4.38-4.5,2.75-6.17-.01.05-.08,1.66-1.61,2.69Z"/>
            <g>
              <path class="cls-10" d="m48.15,70.68c.8.34,1.66.52,2.53.53,0,0,0,0,.01,0,1.38.02,2.35.58,3.64.94.04.01.08.03.12.04.4.11.84.27,1.37.49,0,0-3.08-6.05-6.38-4.89-2.93,1.03-4.33,1.6-1.29,2.89Z"/>
              <path class="cls-16" d="m48.18,70.69c.79.33,1.64.5,2.5.52,0,0,0,0,.01,0,1.38.02,2.35.58,3.64.94.04.01.08.03.12.04.4.11.84.27,1.37.49-1.19-1.47-3.53-3.15-5.17-2.74-1.48.37-2.59.34-4.1-.23.21.29.72.61,1.63.99Z"/>
            </g>
          </g>
          <rect class="cls-6" x="75.5" y="75.18" width="37.75" height="9.34"/>
          <polygon class="cls-18" points="196.52 82.04 188.9 82.04 151.15 82.04 143.54 82.04 113.25 82.04 111.66 82.04 83.11 82.04 75.5 82.04 37.75 82.04 30.14 82.04 0 82.04 0 116.24 30.14 116.24 37.75 116.24 75.5 116.24 83.11 116.24 111.66 116.24 113.25 116.24 143.54 116.24 151.15 116.24 188.9 116.24 196.52 116.24 226.65 116.24 226.65 82.04 196.52 82.04"/>
          <g>
            <path class="cls-5" d="m95.61,80.91c.12-5.04,1.45-8.85,1.45-8.85-1.43,2.38-2.29,8.23-2.32,8.85h.87Z"/>
            <path class="cls-19" d="m94.42,80.91c-.12-5.04-1.45-8.85-1.45-8.85,1.43,2.38,2.21,8.23,2.23,8.85h-.78Z"/>
            <path class="cls-10" d="m93.47,73.61s3.88-3.91-2.99-4.69c-6.87-.78-7.44,2.16-3.72,3.56,3.72,1.4,5.23-2.08,6.71,1.13Z"/>
            <path class="cls-16" d="m88.72,71.61c.83,0,1.62-.11,2.42-.32.42-.11,1.19-.43,1.61-.15.65.44.7,1.48.71,2.2,0,.09.01.18.02.26,0,0,0,0,0,0-1.48-3.21-2.99.27-6.71-1.13-1.7-.64-2.5-1.6-2.22-2.38,1.17.93,2.58,1.51,4.18,1.52Z"/>
            <path class="cls-10" d="m96.66,73.07s-4.74-4.7-2.64-6.26c2.11-1.56,4.43-.83,2.64,6.26Z"/>
            <path class="cls-16" d="m95.52,69.6c1.27.85.79,2.78,1.14,3.47-.76-.79-4.37-4.49-2.75-6.16.01.05.08,1.66,1.61,2.69Z"/>
            <g>
              <path class="cls-10" d="m104.4,70.69c-.8.34-1.66.52-2.53.53,0,0,0,0-.01,0-1.38.02-2.35.58-3.63.94-.04.01-.08.03-.12.04-.4.11-.84.27-1.37.48,0,0,3.07-6.04,6.37-4.88,2.93,1.03,4.32,1.59,1.29,2.88Z"/>
              <path class="cls-16" d="m104.36,70.71c-.79.33-1.64.5-2.49.52,0,0,0,0-.01,0-1.38.02-2.35.58-3.63.94-.04.01-.08.03-.12.04-.4.11-.84.27-1.37.48,1.18-1.47,3.52-3.15,5.16-2.74,1.48.37,2.59.34,4.09-.23-.2.29-.72.61-1.63.99Z"/>
            </g>
          </g>
          <polygon class="cls-17" points="75.5 113.93 37.75 113.93 0 113.93 0 118.56 37.75 118.56 75.5 118.56 113.25 118.56 113.25 113.93 75.5 113.93"/>
          <polygon class="cls-12" points="113.25 97.84 110.25 97.84 0 97.84 0 116.24 110.25 116.24 113.25 116.24 226.65 116.24 226.65 97.84 113.25 97.84"/>
          <rect class="cls-6" y="109.22" width="37.75" height="9.34"/>
          <g>
            <path class="cls-5" d="m18.21,114.95c-.18-7.64-2.2-13.42-2.2-13.42,2.16,3.6,3.47,12.46,3.51,13.42h-1.31Z"/>
            <path class="cls-19" d="m20.01,114.95c.18-7.64,2.2-13.42,2.2-13.42-2.16,3.6-3.34,12.46-3.38,13.42h1.18Z"/>
            <path class="cls-10" d="m21.45,103.89s-5.88-5.92,4.53-7.11c10.42-1.18,11.27,3.27,5.64,5.39-5.64,2.12-7.92-3.15-10.17,1.72Z"/>
            <path class="cls-16" d="m28.65,100.87c-1.26,0-2.46-.17-3.67-.49-.63-.17-1.8-.65-2.44-.23-.99.66-1.06,2.24-1.07,3.33,0,.14-.02.27-.03.4,0,0,0,0,0,0,2.25-4.86,4.53.41,10.17-1.72,2.57-.97,3.79-2.42,3.36-3.6-1.77,1.41-3.91,2.29-6.33,2.3Z"/>
            <path class="cls-10" d="m16.62,103.08s7.18-7.12,4-9.49c-3.19-2.36-6.72-1.25-4,9.49Z"/>
            <path class="cls-16" d="m18.35,97.82c-1.92,1.29-1.19,4.21-1.73,5.26,1.16-1.2,6.62-6.81,4.17-9.34-.02.07-.11,2.51-2.44,4.08Z"/>
            <g>
              <path class="cls-10" d="m4.89,99.47c1.21.52,2.52.78,3.83.8,0,0,.01,0,.02,0,2.09.04,3.56.88,5.5,1.42.06.02.12.04.18.06.6.17,1.28.4,2.08.73,0,0-4.65-9.15-9.66-7.4-4.44,1.56-6.55,2.41-1.96,4.37Z"/>
              <path class="cls-16" d="m4.94,99.49c1.2.51,2.48.76,3.78.78,0,0,.01,0,.02,0,2.09.04,3.56.88,5.5,1.42.06.02.12.04.18.06.6.17,1.28.4,2.08.73-1.8-2.22-5.34-4.77-7.82-4.15-2.24.56-3.92.51-6.2-.35.31.43,1.09.92,2.47,1.5Z"/>
            </g>
          </g>
          <rect class="cls-6" x="37.75" y="109.22" width="37.75" height="9.34"/>
          <g>
            <path class="cls-5" d="m57.76,114.95c.18-7.64,2.2-13.42,2.2-13.42-2.16,3.6-3.47,12.46-3.51,13.42h1.31Z"/>
            <path class="cls-19" d="m55.96,114.95c-.18-7.64-2.2-13.42-2.2-13.42,2.16,3.6,3.34,12.46,3.38,13.42h-1.18Z"/>
            <path class="cls-10" d="m54.52,103.89s5.88-5.92-4.53-7.11c-10.42-1.18-11.27,3.27-5.64,5.39,5.64,2.12,7.92-3.15,10.17,1.72Z"/>
            <path class="cls-16" d="m47.32,100.87c1.26,0,2.46-.17,3.67-.49.63-.17,1.8-.65,2.44-.23.99.66,1.06,2.24,1.07,3.33,0,.14.02.27.03.4,0,0,0,0,0,0-2.25-4.86-4.53.41-10.17-1.72-2.57-.97-3.79-2.42-3.36-3.6,1.77,1.41,3.91,2.29,6.33,2.3Z"/>
            <path class="cls-10" d="m59.34,103.08s-7.18-7.12-4-9.49c3.19-2.36,6.72-1.25,4,9.49Z"/>
            <path class="cls-16" d="m57.62,97.82c1.92,1.29,1.19,4.21,1.73,5.26-1.16-1.2-6.62-6.81-4.17-9.34.02.07.11,2.51,2.44,4.08Z"/>
            <g>
              <path class="cls-10" d="m71.08,99.47c-1.21.52-2.52.78-3.83.8,0,0-.01,0-.02,0-2.09.04-3.56.88-5.5,1.42-.06.02-.12.04-.19.06-.6.17-1.28.4-2.08.73,0,0,4.65-9.15,9.66-7.4,4.44,1.56,6.55,2.41,1.96,4.37Z"/>
              <path class="cls-16" d="m71.02,99.49c-1.19.51-2.48.76-3.78.78,0,0-.01,0-.02,0-2.09.04-3.56.88-5.5,1.42-.06.02-.12.04-.19.06-.6.17-1.28.4-2.08.73,1.8-2.22,5.34-4.77,7.82-4.15,2.24.56,3.92.51,6.2-.35-.31.43-1.09.92-2.47,1.5Z"/>
            </g>
          </g>
          <rect class="cls-13" y="116.08" width="450" height="18.06"/>
          <rect class="cls-6" x="75.5" y="109.22" width="37.75" height="9.34"/>
          <g>
            <path class="cls-5" d="m94.81,114.95c-.18-7.64-2.2-13.42-2.2-13.42,2.16,3.6,3.47,12.46,3.51,13.42h-1.31Z"/>
            <path class="cls-19" d="m96.6,114.95c.18-7.64,2.2-13.42,2.2-13.42-2.16,3.6-3.34,12.46-3.38,13.42h1.18Z"/>
            <path class="cls-10" d="m98.04,103.89s-5.88-5.92,4.53-7.11c10.42-1.18,11.27,3.27,5.64,5.39-5.64,2.12-7.92-3.15-10.17,1.72Z"/>
            <path class="cls-16" d="m105.25,100.87c-1.26,0-2.46-.17-3.67-.49-.63-.17-1.8-.65-2.44-.23-.99.66-1.06,2.24-1.07,3.33,0,.14-.02.27-.03.4,0,0,0,0,0,0,2.25-4.86,4.53.41,10.17-1.72,2.57-.97,3.79-2.42,3.36-3.6-1.77,1.41-3.91,2.29-6.33,2.3Z"/>
            <path class="cls-10" d="m93.22,103.08s7.18-7.12,4-9.49c-3.19-2.36-6.72-1.25-4,9.49Z"/>
            <path class="cls-16" d="m94.95,97.82c-1.92,1.29-1.19,4.21-1.73,5.26,1.16-1.2,6.62-6.81,4.17-9.34-.02.07-.11,2.51-2.44,4.08Z"/>
            <g>
              <path class="cls-10" d="m81.49,99.47c1.21.52,2.52.78,3.83.8,0,0,.01,0,.02,0,2.09.04,3.56.88,5.5,1.42.06.02.12.04.18.06.6.17,1.28.4,2.08.73,0,0-4.65-9.15-9.66-7.4-4.44,1.56-6.55,2.41-1.96,4.37Z"/>
              <path class="cls-16" d="m81.54,99.49c1.2.51,2.48.76,3.78.78,0,0,.01,0,.02,0,2.09.04,3.56.88,5.5,1.42.06.02.12.04.18.06.6.17,1.28.4,2.08.73-1.8-2.22-5.34-4.77-7.82-4.15-2.24.56-3.92.51-6.2-.35.31.43,1.09.92,2.47,1.5Z"/>
            </g>
          </g>
          <rect class="cls-6" x="113.4" y="75.18" width="37.75" height="9.34"/>
          <g>
            <path class="cls-5" d="m131.74,80.91c-.13-5.59-1.61-9.82-1.61-9.82,1.58,2.64,2.54,9.13,2.57,9.82h-.96Z"/>
            <path class="cls-19" d="m133.06,80.91c.13-5.59,1.61-9.82,1.61-9.82-1.58,2.64-2.45,9.13-2.48,9.82h.87Z"/>
            <path class="cls-10" d="m134.11,72.81s-4.31-4.34,3.32-5.2c7.63-.87,8.25,2.39,4.13,3.95s-5.8-2.3-7.45,1.26Z"/>
            <path class="cls-16" d="m139.39,70.6c-.92,0-1.8-.13-2.69-.36-.46-.12-1.32-.48-1.78-.17-.73.48-.78,1.64-.79,2.44,0,.1-.01.2-.03.29,0,0,0,0,0,0,1.64-3.56,3.32.3,7.45-1.26,1.88-.71,2.77-1.77,2.46-2.64-1.3,1.03-2.86,1.68-4.63,1.68Z"/>
            <path class="cls-10" d="m130.58,72.22s5.26-5.21,2.93-6.95c-2.34-1.73-4.92-.92-2.93,6.95Z"/>
            <path class="cls-16" d="m131.85,68.36c-1.41.95-.87,3.08-1.26,3.85.85-.88,4.85-4.98,3.05-6.84-.01.05-.08,1.84-1.79,2.98Z"/>
            <g>
              <path class="cls-10" d="m121.99,69.57c.89.38,1.84.57,2.81.59,0,0,0,0,.01,0,1.53.03,2.61.65,4.03,1.04.05.01.09.03.14.04.44.13.93.3,1.52.54,0,0-3.41-6.7-7.07-5.42-3.25,1.14-4.79,1.77-1.43,3.2Z"/>
              <path class="cls-16" d="m122.03,69.59c.88.37,1.82.56,2.77.57,0,0,0,0,.01,0,1.53.03,2.61.65,4.03,1.04.05.01.09.03.14.04.44.13.93.3,1.52.54-1.31-1.63-3.91-3.49-5.73-3.04-1.64.41-2.87.38-4.54-.26.23.32.8.67,1.81,1.1Z"/>
            </g>
          </g>
          <rect class="cls-18" x="225.65" y="82.04" width="224.35" height="34.21"/>
          <rect class="cls-6" x="151.15" y="75.18" width="37.75" height="9.34"/>
          <g>
            <path class="cls-5" d="m170.36,80.91c-.12-5.05-1.45-8.87-1.45-8.87,1.43,2.38,2.3,8.24,2.32,8.87h-.87Z"/>
            <path class="cls-19" d="m171.55,80.91c.12-5.05,1.45-8.87,1.45-8.87-1.43,2.38-2.21,8.24-2.23,8.87h.78Z"/>
            <path class="cls-10" d="m172.5,73.59s-3.89-3.92,3-4.7c6.89-.78,7.45,2.16,3.73,3.56-3.73,1.4-5.24-2.08-6.72,1.13Z"/>
            <path class="cls-16" d="m177.26,71.6c-.83,0-1.62-.11-2.43-.32-.42-.11-1.19-.43-1.61-.15-.66.44-.7,1.48-.71,2.2,0,.09-.01.18-.02.26,0,0,0,0,0,0,1.48-3.21,3,.27,6.72-1.13,1.7-.64,2.5-1.6,2.22-2.38-1.17.93-2.58,1.52-4.18,1.52Z"/>
            <path class="cls-10" d="m169.31,73.06s4.75-4.71,2.64-6.27c-2.11-1.56-4.44-.83-2.64,6.27Z"/>
            <path class="cls-16" d="m170.45,69.58c-1.27.85-.79,2.78-1.14,3.48.76-.79,4.38-4.5,2.75-6.17-.01.05-.08,1.66-1.61,2.69Z"/>
            <g>
              <path class="cls-10" d="m161.55,70.68c.8.34,1.66.52,2.53.53,0,0,0,0,.01,0,1.38.02,2.35.58,3.64.94.04.01.08.03.12.04.4.11.84.27,1.37.49,0,0-3.08-6.05-6.38-4.89-2.93,1.03-4.33,1.6-1.29,2.89Z"/>
              <path class="cls-16" d="m161.59,70.69c.79.33,1.64.5,2.5.52,0,0,0,0,.01,0,1.38.02,2.35.58,3.64.94.04.01.08.03.12.04.4.11.84.27,1.37.49-1.19-1.47-3.53-3.15-5.17-2.74-1.48.37-2.59.34-4.1-.23.21.29.72.61,1.63.99Z"/>
            </g>
          </g>
          <rect class="cls-12" y="82.04" width="450" height="7.07"/>
          <rect class="cls-6" x="188.9" y="75.18" width="37.75" height="9.34"/>
          <g>
            <path class="cls-5" d="m209.01,80.91c.12-5.04,1.45-8.85,1.45-8.85-1.43,2.38-2.29,8.23-2.32,8.85h.87Z"/>
            <path class="cls-19" d="m207.83,80.91c-.12-5.04-1.45-8.85-1.45-8.85,1.43,2.38,2.21,8.23,2.23,8.85h-.78Z"/>
            <path class="cls-10" d="m206.88,73.61s3.88-3.91-2.99-4.69c-6.87-.78-7.44,2.16-3.72,3.56,3.72,1.4,5.23-2.08,6.71,1.13Z"/>
            <path class="cls-16" d="m202.12,71.61c.83,0,1.62-.11,2.42-.32.42-.11,1.19-.43,1.61-.15.65.44.7,1.48.71,2.2,0,.09.01.18.02.26h0c-1.48-3.2-2.99.28-6.71-1.13-1.7-.64-2.5-1.6-2.22-2.38,1.17.93,2.58,1.51,4.18,1.52Z"/>
            <path class="cls-10" d="m210.06,73.07s-4.74-4.7-2.64-6.26c2.1-1.56,4.43-.83,2.64,6.26Z"/>
            <path class="cls-16" d="m208.92,69.6c1.27.85.79,2.78,1.14,3.47-.76-.79-4.37-4.49-2.75-6.16.01.05.08,1.66,1.61,2.69Z"/>
            <g>
              <path class="cls-10" d="m217.8,70.69c-.8.34-1.66.52-2.53.53,0,0,0,0-.01,0-1.38.02-2.35.58-3.63.94-.04.01-.08.03-.12.04-.4.11-.84.27-1.37.48,0,0,3.07-6.04,6.37-4.88,2.93,1.03,4.32,1.59,1.29,2.88Z"/>
              <path class="cls-16" d="m217.77,70.71c-.79.33-1.64.5-2.49.52,0,0,0,0-.01,0-1.38.02-2.35.58-3.63.94-.04.01-.08.03-.12.04-.4.11-.84.27-1.37.48,1.18-1.47,3.52-3.15,5.16-2.74,1.48.37,2.59.34,4.09-.23-.2.29-.72.61-1.63.99Z"/>
            </g>
          </g>
          <polygon class="cls-17" points="188.9 113.93 151.15 113.93 113.4 113.93 113.4 118.56 151.15 118.56 188.9 118.56 226.65 118.56 226.65 113.93 188.9 113.93"/>
          <path class="cls-17" d="m219.61,75.18c-1.19,2.59-5.57,4.5-10.8,4.5s-9.61-1.92-10.8-4.5h-16.15c-1.19,2.59-5.57,4.5-10.8,4.5s-9.61-1.92-10.8-4.5h-16.15c-1.19,2.59-5.57,4.5-10.8,4.5s-9.61-1.92-10.8-4.5h-16.31c-1.19,2.59-5.57,4.5-10.8,4.5s-9.61-1.92-10.8-4.5h-16.15c-1.19,2.59-5.57,4.5-10.8,4.5s-9.61-1.92-10.8-4.5h-16.15c-1.19,2.59-5.57,4.5-10.8,4.5s-9.61-1.92-10.8-4.5H0v9.34h226.65v-9.34h-7.04Z"/>
          <rect class="cls-6" x="113.4" y="109.22" width="37.75" height="9.34"/>
          <g>
            <path class="cls-5" d="m131.61,114.95c-.18-7.64-2.2-13.42-2.2-13.42,2.16,3.6,3.47,12.46,3.51,13.42h-1.31Z"/>
            <path class="cls-19" d="m133.41,114.95c.18-7.64,2.2-13.42,2.2-13.42-2.16,3.6-3.34,12.46-3.38,13.42h1.18Z"/>
            <path class="cls-10" d="m134.85,103.89s-5.88-5.92,4.53-7.11c10.42-1.18,11.27,3.27,5.64,5.39-5.64,2.12-7.92-3.15-10.17,1.72Z"/>
            <path class="cls-16" d="m142.06,100.87c-1.26,0-2.46-.17-3.67-.49-.63-.17-1.8-.65-2.44-.23-.99.66-1.06,2.24-1.07,3.33,0,.14-.02.27-.03.4,0,0,0,0,0,0,2.25-4.86,4.53.41,10.17-1.72,2.57-.97,3.79-2.42,3.36-3.6-1.77,1.41-3.91,2.29-6.33,2.3Z"/>
            <path class="cls-10" d="m130.03,103.08s7.18-7.12,4-9.49c-3.19-2.36-6.72-1.25-4,9.49Z"/>
            <path class="cls-16" d="m131.76,97.82c-1.92,1.29-1.19,4.21-1.73,5.26,1.16-1.2,6.62-6.81,4.17-9.34-.02.07-.11,2.51-2.44,4.08Z"/>
            <g>
              <path class="cls-10" d="m118.3,99.47c1.21.52,2.52.78,3.83.8,0,0,.01,0,.02,0,2.09.04,3.56.88,5.5,1.42.06.02.12.04.18.06.6.17,1.28.4,2.08.73,0,0-4.65-9.15-9.66-7.4-4.44,1.56-6.55,2.41-1.96,4.37Z"/>
              <path class="cls-16" d="m118.35,99.49c1.2.51,2.48.76,3.78.78,0,0,.01,0,.02,0,2.09.04,3.56.88,5.5,1.42.06.02.12.04.18.06.6.17,1.28.4,2.08.73-1.8-2.22-5.34-4.77-7.82-4.15-2.24.56-3.92.51-6.2-.35.31.43,1.09.92,2.47,1.5Z"/>
            </g>
          </g>
          <rect class="cls-6" x="151.15" y="109.22" width="37.75" height="9.34"/>
          <g>
            <path class="cls-5" d="m171.16,114.95c.18-7.64,2.2-13.42,2.2-13.42-2.16,3.6-3.47,12.46-3.51,13.42h1.31Z"/>
            <path class="cls-19" d="m169.37,114.95c-.18-7.64-2.2-13.42-2.2-13.42,2.16,3.6,3.34,12.46,3.38,13.42h-1.18Z"/>
            <path class="cls-10" d="m167.93,103.89s5.88-5.92-4.53-7.11c-10.42-1.18-11.27,3.27-5.64,5.39,5.64,2.12,7.92-3.15,10.17,1.72Z"/>
            <path class="cls-16" d="m160.72,100.87c1.26,0,2.46-.17,3.67-.49.63-.17,1.8-.65,2.44-.23.99.66,1.06,2.24,1.07,3.33,0,.14.02.27.03.4,0,0,0,0,0,0-2.25-4.86-4.53.41-10.17-1.72-2.57-.97-3.79-2.42-3.36-3.6,1.77,1.41,3.91,2.29,6.33,2.3Z"/>
            <path class="cls-10" d="m172.75,103.08s-7.18-7.12-4-9.49c3.19-2.36,6.72-1.25,4,9.49Z"/>
            <path class="cls-16" d="m171.02,97.82c1.92,1.29,1.19,4.21,1.73,5.26-1.16-1.2-6.62-6.81-4.17-9.34.02.07.11,2.51,2.44,4.08Z"/>
            <g>
              <path class="cls-10" d="m184.48,99.47c-1.21.52-2.52.78-3.83.8,0,0-.01,0-.02,0-2.09.04-3.56.88-5.5,1.42-.06.02-.12.04-.18.06-.6.17-1.28.4-2.08.73,0,0,4.65-9.15,9.66-7.4,4.44,1.56,6.55,2.41,1.96,4.37Z"/>
              <path class="cls-16" d="m184.43,99.49c-1.19.51-2.48.76-3.78.78,0,0-.01,0-.02,0-2.09.04-3.56.88-5.5,1.42-.06.02-.12.04-.18.06-.6.17-1.28.4-2.08.73,1.8-2.22,5.34-4.77,7.82-4.15,2.24.56,3.92.51,6.2-.35-.31.43-1.09.92-2.47,1.5Z"/>
            </g>
          </g>
          <rect class="cls-12" y="116.08" width="450" height="7.07"/>
          <rect class="cls-6" x="188.9" y="109.22" width="37.75" height="9.34"/>
          <g>
            <path class="cls-5" d="m208.21,114.95c-.18-7.64-2.2-13.42-2.2-13.42,2.16,3.6,3.47,12.46,3.51,13.42h-1.31Z"/>
            <path class="cls-19" d="m210.01,114.95c.18-7.64,2.2-13.42,2.2-13.42-2.16,3.6-3.34,12.46-3.38,13.42h1.18Z"/>
            <path class="cls-10" d="m211.45,103.89s-5.88-5.92,4.53-7.11c10.42-1.18,11.27,3.27,5.64,5.39-5.64,2.12-7.92-3.15-10.17,1.72Z"/>
            <path class="cls-16" d="m218.65,100.87c-1.26,0-2.46-.17-3.67-.49-.63-.17-1.8-.65-2.44-.23-.99.66-1.06,2.24-1.07,3.33,0,.14-.02.27-.03.4,0,0,0,0,0,0,2.25-4.86,4.53.41,10.17-1.72,2.57-.97,3.79-2.42,3.36-3.6-1.77,1.41-3.91,2.29-6.33,2.3Z"/>
            <path class="cls-10" d="m206.63,103.08s7.18-7.12,4-9.49c-3.19-2.36-6.72-1.25-4,9.49Z"/>
            <path class="cls-16" d="m208.35,97.82c-1.92,1.29-1.19,4.21-1.73,5.26,1.16-1.2,6.62-6.81,4.17-9.34-.02.07-.11,2.51-2.44,4.08Z"/>
            <g>
              <path class="cls-10" d="m194.89,99.47c1.21.52,2.52.78,3.83.8,0,0,.01,0,.02,0,2.09.04,3.56.88,5.5,1.42.06.02.12.04.18.06.6.17,1.28.4,2.08.73,0,0-4.65-9.15-9.66-7.4-4.44,1.56-6.55,2.41-1.96,4.37Z"/>
              <path class="cls-16" d="m194.95,99.49c1.2.51,2.48.76,3.78.78,0,0,.01,0,.02,0,2.09.04,3.56.88,5.5,1.42.06.02.12.04.18.06.6.17,1.28.4,2.08.73-1.8-2.22-5.34-4.77-7.82-4.15-2.24.56-3.92.51-6.2-.35.31.43,1.09.92,2.47,1.5Z"/>
            </g>
          </g>
          <path class="cls-14" d="m219.61,109.22c-1.19,2.59-5.57,4.5-10.8,4.5s-9.61-1.92-10.8-4.5h-16.15c-1.19,2.59-5.57,4.5-10.8,4.5s-9.61-1.92-10.8-4.5h-16.15c-1.19,2.59-5.57,4.5-10.8,4.5s-9.61-1.92-10.8-4.5h-16.31c-1.19,2.59-5.57,4.5-10.8,4.5s-9.61-1.92-10.8-4.5h-16.15c-1.19,2.59-5.57,4.5-10.8,4.5s-9.61-1.92-10.8-4.5h-16.15c-1.19,2.59-5.57,4.5-10.8,4.5s-9.61-1.92-10.8-4.5H0v9.34h226.65v-9.34h-7.04Z"/>
          <rect class="cls-6" x="225.65" y="75.18" width="37.75" height="9.34"/>
          <g>
            <path class="cls-5" d="m243.99,80.91c-.13-5.59-1.61-9.82-1.61-9.82,1.58,2.64,2.54,9.13,2.57,9.82h-.96Z"/>
            <path class="cls-19" d="m245.31,80.91c.13-5.59,1.61-9.82,1.61-9.82-1.58,2.64-2.45,9.13-2.48,9.82h.87Z"/>
            <path class="cls-10" d="m246.36,72.81s-4.31-4.34,3.32-5.2c7.63-.87,8.25,2.39,4.13,3.95-4.13,1.56-5.8-2.3-7.45,1.26Z"/>
            <path class="cls-16" d="m251.64,70.6c-.92,0-1.8-.13-2.69-.36-.46-.12-1.32-.48-1.78-.17-.73.48-.78,1.64-.79,2.44,0,.1-.01.2-.03.29,0,0,0,0,0,0,1.64-3.56,3.32.3,7.45-1.26,1.88-.71,2.77-1.77,2.46-2.64-1.3,1.03-2.86,1.68-4.63,1.68Z"/>
            <path class="cls-10" d="m242.83,72.22s5.26-5.21,2.93-6.95c-2.34-1.73-4.92-.92-2.93,6.95Z"/>
            <path class="cls-16" d="m244.1,68.36c-1.41.95-.87,3.08-1.26,3.85.85-.88,4.85-4.98,3.05-6.84-.01.05-.08,1.84-1.79,2.98Z"/>
            <g>
              <path class="cls-10" d="m234.24,69.57c.89.38,1.84.57,2.81.59,0,0,0,0,.01,0,1.53.03,2.61.65,4.03,1.04.05.01.09.03.14.04.44.13.93.3,1.52.54,0,0-3.41-6.7-7.07-5.42-3.25,1.14-4.79,1.77-1.43,3.2Z"/>
              <path class="cls-16" d="m234.28,69.59c.88.37,1.82.56,2.77.57,0,0,0,0,.01,0,1.53.03,2.61.65,4.03,1.04.05.01.09.03.14.04.44.13.93.3,1.52.54-1.31-1.63-3.91-3.49-5.73-3.04-1.64.41-2.87.38-4.54-.26.23.32.8.67,1.81,1.1Z"/>
            </g>
          </g>
          <rect class="cls-6" x="263.4" y="75.18" width="37.75" height="9.34"/>
          <g>
            <path class="cls-5" d="m282.61,80.91c-.12-5.05-1.45-8.87-1.45-8.87,1.43,2.38,2.3,8.24,2.32,8.87h-.87Z"/>
            <path class="cls-19" d="m283.79,80.91c.12-5.05,1.45-8.87,1.45-8.87-1.43,2.38-2.21,8.24-2.23,8.87h.78Z"/>
            <path class="cls-10" d="m284.75,73.59s-3.89-3.92,3-4.7c6.89-.78,7.45,2.16,3.73,3.56-3.73,1.4-5.24-2.08-6.72,1.13Z"/>
            <path class="cls-16" d="m289.51,71.6c-.83,0-1.62-.11-2.43-.32-.42-.11-1.19-.43-1.61-.15-.66.44-.7,1.48-.71,2.2,0,.09-.01.18-.02.26,0,0,0,0,0,0,1.48-3.21,3,.27,6.72-1.13,1.7-.64,2.5-1.6,2.22-2.38-1.17.93-2.58,1.52-4.18,1.52Z"/>
            <path class="cls-10" d="m281.56,73.06s4.75-4.71,2.64-6.27c-2.11-1.56-4.44-.83-2.64,6.27Z"/>
            <path class="cls-16" d="m282.7,69.58c-1.27.85-.79,2.78-1.14,3.48.76-.79,4.38-4.5,2.75-6.17-.01.05-.08,1.66-1.61,2.69Z"/>
            <g>
              <path class="cls-10" d="m273.8,70.68c.8.34,1.66.52,2.53.53,0,0,0,0,.01,0,1.38.02,2.35.58,3.64.94.04.01.08.03.12.04.4.11.84.27,1.37.49,0,0-3.08-6.05-6.38-4.89-2.93,1.03-4.33,1.6-1.29,2.89Z"/>
              <path class="cls-16" d="m273.84,70.69c.79.33,1.64.5,2.5.52,0,0,0,0,.01,0,1.38.02,2.35.58,3.64.94.04.01.08.03.12.04.4.11.84.27,1.37.49-1.19-1.47-3.53-3.15-5.17-2.74-1.48.37-2.59.34-4.1-.23.21.29.72.61,1.63.99Z"/>
            </g>
          </g>
          <rect class="cls-6" x="301.15" y="75.18" width="37.75" height="9.34"/>
          <g>
            <path class="cls-5" d="m321.26,80.91c.12-5.04,1.45-8.85,1.45-8.85-1.43,2.38-2.29,8.23-2.32,8.85h.87Z"/>
            <path class="cls-19" d="m320.08,80.91c-.12-5.04-1.45-8.85-1.45-8.85,1.43,2.38,2.21,8.23,2.23,8.85h-.78Z"/>
            <path class="cls-10" d="m319.13,73.61s3.88-3.91-2.99-4.69c-6.87-.78-7.44,2.16-3.72,3.56,3.72,1.4,5.23-2.08,6.71,1.13Z"/>
            <path class="cls-16" d="m314.37,71.61c.83,0,1.62-.11,2.42-.32.42-.11,1.19-.43,1.61-.15.65.44.7,1.48.71,2.2,0,.09.01.18.02.26,0,0,0,0,0,0-1.48-3.21-2.99.27-6.71-1.13-1.7-.64-2.5-1.6-2.22-2.38,1.17.93,2.58,1.51,4.18,1.52Z"/>
            <path class="cls-10" d="m322.31,73.07s-4.74-4.7-2.64-6.26c2.1-1.56,4.43-.83,2.64,6.26Z"/>
            <path class="cls-16" d="m321.17,69.6c1.27.85.79,2.78,1.14,3.47-.76-.79-4.37-4.49-2.75-6.16.01.05.08,1.66,1.61,2.69Z"/>
            <g>
              <path class="cls-10" d="m330.05,70.69c-.8.34-1.66.52-2.53.53,0,0,0,0-.01,0-1.38.02-2.35.58-3.63.94-.04.01-.08.03-.12.04-.4.11-.84.27-1.37.48,0,0,3.07-6.04,6.37-4.88,2.93,1.03,4.32,1.59,1.29,2.88Z"/>
              <path class="cls-16" d="m330.02,70.71c-.79.33-1.64.5-2.49.52,0,0,0,0-.01,0-1.38.02-2.35.58-3.63.94-.04.01-.08.03-.12.04-.4.11-.84.27-1.37.48,1.18-1.47,3.52-3.15,5.16-2.74,1.48.37,2.59.34,4.09-.23-.2.29-.72.61-1.63.99Z"/>
            </g>
          </g>
          <polygon class="cls-17" points="301.15 113.93 263.4 113.93 225.65 113.93 225.65 118.56 263.4 118.56 301.15 118.56 338.9 118.56 338.9 113.93 301.15 113.93"/>
          <rect class="cls-12" x="225.65" y="97.84" width="224.35" height="18.4"/>
          <rect class="cls-6" x="225.65" y="109.22" width="37.75" height="9.34"/>
          <g>
            <path class="cls-5" d="m243.86,114.95c-.18-7.64-2.2-13.42-2.2-13.42,2.16,3.6,3.47,12.46,3.51,13.42h-1.31Z"/>
            <path class="cls-19" d="m245.66,114.95c.18-7.64,2.2-13.42,2.2-13.42-2.16,3.6-3.34,12.46-3.38,13.42h1.18Z"/>
            <path class="cls-10" d="m247.1,103.89s-5.88-5.92,4.53-7.11c10.42-1.18,11.27,3.27,5.64,5.39-5.64,2.12-7.92-3.15-10.17,1.72Z"/>
            <path class="cls-16" d="m254.31,100.87c-1.26,0-2.46-.17-3.67-.49-.63-.17-1.8-.65-2.44-.23-.99.66-1.06,2.24-1.07,3.33,0,.14-.02.27-.03.4,0,0,0,0,0,0,2.25-4.86,4.53.41,10.17-1.72,2.57-.97,3.79-2.42,3.36-3.6-1.77,1.41-3.91,2.29-6.33,2.3Z"/>
            <path class="cls-10" d="m242.28,103.08s7.18-7.12,4-9.49c-3.19-2.36-6.72-1.25-4,9.49Z"/>
            <path class="cls-16" d="m244,97.82c-1.92,1.29-1.19,4.21-1.73,5.26,1.16-1.2,6.62-6.81,4.17-9.34-.02.07-.11,2.51-2.44,4.08Z"/>
            <g>
              <path class="cls-10" d="m230.55,99.47c1.21.52,2.52.78,3.83.8,0,0,.01,0,.02,0,2.09.04,3.56.88,5.5,1.42.06.02.12.04.18.06.6.17,1.28.4,2.08.73,0,0-4.65-9.15-9.66-7.4-4.44,1.56-6.55,2.41-1.96,4.37Z"/>
              <path class="cls-16" d="m230.6,99.49c1.2.51,2.48.76,3.78.78,0,0,.01,0,.02,0,2.09.04,3.56.88,5.5,1.42.06.02.12.04.18.06.6.17,1.28.4,2.08.73-1.8-2.22-5.34-4.77-7.82-4.15-2.24.56-3.92.51-6.2-.35.31.43,1.09.92,2.47,1.5Z"/>
            </g>
          </g>
          <rect class="cls-6" x="263.4" y="109.22" width="37.75" height="9.34"/>
          <g>
            <path class="cls-5" d="m283.41,114.95c.18-7.64,2.2-13.42,2.2-13.42-2.16,3.6-3.47,12.46-3.51,13.42h1.31Z"/>
            <path class="cls-19" d="m281.62,114.95c-.18-7.64-2.2-13.42-2.2-13.42,2.16,3.6,3.34,12.46,3.38,13.42h-1.18Z"/>
            <path class="cls-10" d="m280.18,103.89s5.88-5.92-4.53-7.11c-10.42-1.18-11.27,3.27-5.64,5.39,5.64,2.12,7.92-3.15,10.17,1.72Z"/>
            <path class="cls-16" d="m272.97,100.87c1.26,0,2.46-.17,3.67-.49.63-.17,1.8-.65,2.44-.23.99.66,1.06,2.24,1.07,3.33,0,.14.02.27.03.4,0,0,0,0,0,0-2.25-4.86-4.53.41-10.17-1.72-2.57-.97-3.79-2.42-3.36-3.6,1.77,1.41,3.91,2.29,6.33,2.3Z"/>
            <path class="cls-10" d="m285,103.08s-7.18-7.12-4-9.49c3.19-2.36,6.72-1.25,4,9.49Z"/>
            <path class="cls-16" d="m283.27,97.82c1.92,1.29,1.19,4.21,1.73,5.26-1.16-1.2-6.62-6.81-4.17-9.34.02.07.11,2.51,2.44,4.08Z"/>
            <g>
              <path class="cls-10" d="m296.73,99.47c-1.21.52-2.52.78-3.83.8,0,0-.01,0-.02,0-2.09.04-3.56.88-5.5,1.42-.06.02-.12.04-.18.06-.6.17-1.28.4-2.08.73,0,0,4.65-9.15,9.66-7.4,4.44,1.56,6.55,2.41,1.96,4.37Z"/>
              <path class="cls-16" d="m296.68,99.49c-1.19.51-2.48.76-3.78.78,0,0-.01,0-.02,0-2.09.04-3.56.88-5.5,1.42-.06.02-.12.04-.18.06-.6.17-1.28.4-2.08.73,1.8-2.22,5.34-4.77,7.82-4.15,2.24.56,3.92.51,6.2-.35-.31.43-1.09.92-2.47,1.5Z"/>
            </g>
          </g>
          <rect class="cls-6" x="301.15" y="109.22" width="37.75" height="9.34"/>
          <g>
            <path class="cls-5" d="m320.46,114.95c-.18-7.64-2.2-13.42-2.2-13.42,2.16,3.6,3.47,12.46,3.51,13.42h-1.31Z"/>
            <path class="cls-19" d="m322.26,114.95c.18-7.64,2.2-13.42,2.2-13.42-2.16,3.6-3.34,12.46-3.38,13.42h1.18Z"/>
            <path class="cls-10" d="m323.7,103.89s-5.88-5.92,4.53-7.11c10.42-1.18,11.27,3.27,5.64,5.39-5.64,2.12-7.92-3.15-10.17,1.72Z"/>
            <path class="cls-16" d="m330.9,100.87c-1.26,0-2.46-.17-3.67-.49-.63-.17-1.8-.65-2.44-.23-.99.66-1.06,2.24-1.07,3.33,0,.14-.02.27-.03.4,0,0,0,0,0,0,2.25-4.86,4.53.41,10.17-1.72,2.57-.97,3.79-2.42,3.36-3.6-1.77,1.41-3.91,2.29-6.33,2.3Z"/>
            <path class="cls-10" d="m318.88,103.08s7.18-7.12,4-9.49c-3.19-2.36-6.72-1.25-4,9.49Z"/>
            <path class="cls-16" d="m320.6,97.82c-1.92,1.29-1.19,4.21-1.73,5.26,1.16-1.2,6.62-6.81,4.17-9.34-.02.07-.11,2.51-2.44,4.08Z"/>
            <g>
              <path class="cls-10" d="m307.14,99.47c1.21.52,2.52.78,3.83.8,0,0,.01,0,.02,0,2.09.04,3.56.88,5.5,1.42.06.02.12.04.18.06.6.17,1.28.4,2.08.73,0,0-4.65-9.15-9.66-7.4-4.44,1.56-6.55,2.41-1.96,4.37Z"/>
              <path class="cls-16" d="m307.2,99.49c1.2.51,2.48.76,3.78.78,0,0,.01,0,.02,0,2.09.04,3.56.88,5.5,1.42.06.02.12.04.18.06.6.17,1.28.4,2.08.73-1.8-2.22-5.34-4.77-7.82-4.15-2.24.56-3.92.51-6.2-.35.31.43,1.09.92,2.47,1.5Z"/>
            </g>
          </g>
          <rect class="cls-6" x="339.06" y="75.18" width="37.75" height="9.34"/>
          <g>
            <path class="cls-5" d="m357.4,80.91c-.13-5.59-1.61-9.82-1.61-9.82,1.58,2.64,2.54,9.13,2.57,9.82h-.96Z"/>
            <path class="cls-19" d="m358.71,80.91c.13-5.59,1.61-9.82,1.61-9.82-1.58,2.64-2.45,9.13-2.48,9.82h.87Z"/>
            <path class="cls-10" d="m359.77,72.81s-4.31-4.34,3.32-5.2c7.63-.87,8.25,2.39,4.13,3.95-4.13,1.56-5.8-2.3-7.45,1.26Z"/>
            <path class="cls-16" d="m365.04,70.6c-.92,0-1.8-.13-2.69-.36-.46-.12-1.32-.48-1.78-.17-.73.48-.78,1.64-.79,2.44,0,.1-.01.2-.03.29,0,0,0,0,0,0,1.64-3.56,3.32.3,7.45-1.26,1.88-.71,2.77-1.77,2.46-2.64-1.3,1.03-2.86,1.68-4.63,1.68Z"/>
            <path class="cls-10" d="m356.24,72.22s5.26-5.21,2.93-6.95c-2.34-1.73-4.92-.92-2.93,6.95Z"/>
            <path class="cls-16" d="m357.5,68.36c-1.41.95-.87,3.08-1.26,3.85.85-.88,4.85-4.98,3.05-6.84-.01.05-.08,1.84-1.79,2.98Z"/>
            <g>
              <path class="cls-10" d="m347.64,69.57c.89.38,1.84.57,2.81.59,0,0,0,0,.01,0,1.53.03,2.61.65,4.03,1.04.05.01.09.03.14.04.44.13.93.3,1.52.54,0,0-3.41-6.7-7.07-5.42-3.25,1.14-4.79,1.77-1.43,3.2Z"/>
              <path class="cls-16" d="m347.68,69.59c.88.37,1.82.56,2.77.57,0,0,0,0,.01,0,1.53.03,2.61.65,4.03,1.04.05.01.09.03.14.04.44.13.93.3,1.52.54-1.31-1.63-3.91-3.49-5.73-3.04-1.64.41-2.87.38-4.54-.26.23.32.8.67,1.81,1.1Z"/>
            </g>
          </g>
          <rect class="cls-6" x="376.81" y="75.18" width="37.75" height="9.34"/>
          <g>
            <path class="cls-5" d="m396.01,80.91c-.12-5.05-1.45-8.87-1.45-8.87,1.43,2.38,2.3,8.24,2.32,8.87h-.87Z"/>
            <path class="cls-19" d="m397.2,80.91c.12-5.05,1.45-8.87,1.45-8.87-1.43,2.38-2.21,8.24-2.23,8.87h.78Z"/>
            <path class="cls-10" d="m398.15,73.59s-3.89-3.92,3-4.7c6.89-.78,7.45,2.16,3.73,3.56-3.73,1.4-5.24-2.08-6.72,1.13Z"/>
            <path class="cls-16" d="m402.91,71.6c-.83,0-1.62-.11-2.43-.32-.42-.11-1.19-.43-1.61-.15-.66.44-.7,1.48-.71,2.2,0,.09-.01.18-.02.26,0,0,0,0,0,0,1.48-3.21,3,.27,6.72-1.13,1.7-.64,2.5-1.6,2.22-2.38-1.17.93-2.58,1.52-4.18,1.52Z"/>
            <path class="cls-10" d="m394.96,73.06s4.75-4.71,2.64-6.27c-2.11-1.56-4.44-.83-2.64,6.27Z"/>
            <path class="cls-16" d="m396.1,69.58c-1.27.85-.79,2.78-1.14,3.48.76-.79,4.38-4.5,2.75-6.17-.01.05-.08,1.66-1.61,2.69Z"/>
            <g>
              <path class="cls-10" d="m387.21,70.68c.8.34,1.66.52,2.53.53,0,0,0,0,.01,0,1.38.02,2.35.58,3.64.94.04.01.08.03.12.04.4.11.84.27,1.37.49,0,0-3.08-6.05-6.38-4.89-2.93,1.03-4.33,1.6-1.29,2.89Z"/>
              <path class="cls-16" d="m387.24,70.69c.79.33,1.64.5,2.5.52,0,0,0,0,.01,0,1.38.02,2.35.58,3.64.94.04.01.08.03.12.04.4.11.84.27,1.37.49-1.19-1.47-3.53-3.15-5.17-2.74-1.48.37-2.59.34-4.1-.23.21.29.72.61,1.63.99Z"/>
            </g>
          </g>
          <rect class="cls-6" x="414.56" y="75.18" width="35.44" height="9.34"/>
          <g>
            <path class="cls-5" d="m434.67,80.91c.12-5.04,1.45-8.85,1.45-8.85-1.43,2.38-2.29,8.23-2.32,8.85h.87Z"/>
            <path class="cls-19" d="m433.48,80.91c-.12-5.04-1.45-8.85-1.45-8.85,1.43,2.38,2.21,8.23,2.23,8.85h-.78Z"/>
            <path class="cls-10" d="m432.53,73.61s3.88-3.91-2.99-4.69c-6.87-.78-7.44,2.16-3.72,3.56,3.72,1.4,5.23-2.08,6.71,1.13Z"/>
            <path class="cls-16" d="m427.78,71.61c.83,0,1.62-.11,2.42-.32.42-.11,1.19-.43,1.61-.15.65.44.7,1.48.71,2.2,0,.09.01.18.02.26,0,0,0,0,0,0-1.48-3.21-2.99.27-6.71-1.13-1.7-.64-2.5-1.6-2.22-2.38,1.17.93,2.58,1.51,4.18,1.52Z"/>
            <path class="cls-10" d="m435.71,73.07s-4.74-4.7-2.64-6.26c2.11-1.56,4.43-.83,2.64,6.26Z"/>
            <path class="cls-16" d="m434.57,69.6c1.27.85.79,2.78,1.14,3.47-.76-.79-4.37-4.49-2.75-6.16.01.05.08,1.66,1.61,2.69Z"/>
            <g>
              <path class="cls-10" d="m443.46,70.69c-.8.34-1.66.52-2.53.53,0,0,0,0-.01,0-1.38.02-2.35.58-3.63.94-.04.01-.08.03-.12.04-.4.11-.84.27-1.37.48,0,0,3.07-6.04,6.37-4.88,2.93,1.03,4.32,1.59,1.29,2.88Z"/>
              <path class="cls-16" d="m443.42,70.71c-.79.33-1.64.5-2.49.52,0,0,0,0-.01,0-1.38.02-2.35.58-3.63.94-.04.01-.08.03-.12.04-.4.11-.84.27-1.37.48,1.18-1.47,3.52-3.15,5.16-2.74,1.48.37,2.59.34,4.09-.23-.2.29-.72.61-1.63.99Z"/>
            </g>
          </g>
          <rect class="cls-17" x="339.06" y="113.93" width="110.94" height="4.63"/>
          <path class="cls-17" d="m450,75.18h-4.74c-1.19,2.59-5.57,4.5-10.8,4.5s-9.61-1.92-10.8-4.5h-16.15c-1.19,2.59-5.57,4.5-10.8,4.5s-9.61-1.92-10.8-4.5h-16.15c-1.19,2.59-5.57,4.5-10.8,4.5s-9.61-1.92-10.8-4.5h-16.31c-1.19,2.59-5.57,4.5-10.8,4.5s-9.61-1.92-10.8-4.5h-16.15c-1.19,2.59-5.57,4.5-10.8,4.5s-9.61-1.92-10.8-4.5h-16.15c-1.19,2.59-5.57,4.5-10.8,4.5s-9.61-1.92-10.8-4.5h-10.2v9.34h225.44v-9.34Z"/>
          <rect class="cls-6" x="339.06" y="109.22" width="37.75" height="9.34"/>
          <g>
            <path class="cls-5" d="m357.27,114.95c-.18-7.64-2.2-13.42-2.2-13.42,2.16,3.6,3.47,12.46,3.51,13.42h-1.31Z"/>
            <path class="cls-19" d="m359.06,114.95c.18-7.64,2.2-13.42,2.2-13.42-2.16,3.6-3.34,12.46-3.38,13.42h1.18Z"/>
            <path class="cls-10" d="m360.5,103.89s-5.88-5.92,4.53-7.11c10.42-1.18,11.27,3.27,5.64,5.39-5.64,2.12-7.92-3.15-10.17,1.72Z"/>
            <path class="cls-16" d="m367.71,100.87c-1.26,0-2.46-.17-3.67-.49-.63-.17-1.8-.65-2.44-.23-.99.66-1.06,2.24-1.07,3.33,0,.14-.02.27-.03.4,0,0,0,0,0,0,2.25-4.86,4.53.41,10.17-1.72,2.57-.97,3.79-2.42,3.36-3.6-1.77,1.41-3.91,2.29-6.33,2.3Z"/>
            <path class="cls-10" d="m355.68,103.08s7.18-7.12,4-9.49c-3.19-2.36-6.72-1.25-4,9.49Z"/>
            <path class="cls-16" d="m357.41,97.82c-1.92,1.29-1.19,4.21-1.73,5.26,1.16-1.2,6.62-6.81,4.17-9.34-.02.07-.11,2.51-2.44,4.08Z"/>
            <g>
              <path class="cls-10" d="m343.95,99.47c1.21.52,2.52.78,3.83.8,0,0,.01,0,.02,0,2.09.04,3.56.88,5.5,1.42.06.02.12.04.18.06.6.17,1.28.4,2.08.73,0,0-4.65-9.15-9.66-7.4-4.44,1.56-6.55,2.41-1.96,4.37Z"/>
              <path class="cls-16" d="m344,99.49c1.2.51,2.48.76,3.78.78,0,0,.01,0,.02,0,2.09.04,3.56.88,5.5,1.42.06.02.12.04.18.06.6.17,1.28.4,2.08.73-1.8-2.22-5.34-4.77-7.82-4.15-2.24.56-3.92.51-6.2-.35.31.43,1.09.92,2.47,1.5Z"/>
            </g>
          </g>
          <rect class="cls-6" x="376.81" y="109.22" width="37.75" height="9.34"/>
          <g>
            <path class="cls-5" d="m396.82,114.95c.18-7.64,2.2-13.42,2.2-13.42-2.16,3.6-3.47,12.46-3.51,13.42h1.31Z"/>
            <path class="cls-19" d="m395.02,114.95c-.18-7.64-2.2-13.42-2.2-13.42,2.16,3.6,3.34,12.46,3.38,13.42h-1.18Z"/>
            <path class="cls-10" d="m393.58,103.89s5.88-5.92-4.53-7.11c-10.42-1.18-11.27,3.27-5.64,5.39,5.64,2.12,7.92-3.15,10.17,1.72Z"/>
            <path class="cls-16" d="m386.37,100.87c1.26,0,2.46-.17,3.67-.49.63-.17,1.8-.65,2.44-.23.99.66,1.06,2.24,1.07,3.33,0,.14.02.27.03.4,0,0,0,0,0,0-2.25-4.86-4.53.41-10.17-1.72-2.57-.97-3.79-2.42-3.36-3.6,1.77,1.41,3.91,2.29,6.33,2.3Z"/>
            <path class="cls-10" d="m398.4,103.08s-7.18-7.12-4-9.49c3.19-2.36,6.72-1.25,4,9.49Z"/>
            <path class="cls-16" d="m396.67,97.82c1.92,1.29,1.19,4.21,1.73,5.26-1.16-1.2-6.62-6.81-4.17-9.34.02.07.11,2.51,2.44,4.08Z"/>
            <g>
              <path class="cls-10" d="m410.13,99.47c-1.21.52-2.52.78-3.83.8,0,0-.01,0-.02,0-2.09.04-3.56.88-5.5,1.42-.06.02-.12.04-.19.06-.6.17-1.28.4-2.08.73,0,0,4.65-9.15,9.66-7.4,4.44,1.56,6.55,2.41,1.96,4.37Z"/>
              <path class="cls-16" d="m410.08,99.49c-1.19.51-2.48.76-3.78.78,0,0-.01,0-.02,0-2.09.04-3.56.88-5.5,1.42-.06.02-.12.04-.19.06-.6.17-1.28.4-2.08.73,1.8-2.22,5.34-4.77,7.82-4.15,2.24.56,3.92.51,6.2-.35-.31.43-1.09.92-2.47,1.5Z"/>
            </g>
          </g>
          <rect class="cls-6" x="414.56" y="109.22" width="35.44" height="9.34"/>
          <g>
            <path class="cls-5" d="m433.86,114.95c-.18-7.64-2.2-13.42-2.2-13.42,2.16,3.6,3.47,12.46,3.51,13.42h-1.31Z"/>
            <path class="cls-19" d="m435.66,114.95c.18-7.64,2.2-13.42,2.2-13.42-2.16,3.6-3.34,12.46-3.38,13.42h1.18Z"/>
            <path class="cls-10" d="m450,97.75c-1.19-.94-3.89-1.48-8.37-.97-10.42,1.18-4.53,7.11-4.53,7.11,2.25-4.86,4.53.41,10.17-1.72,1.24-.47,2.15-1.05,2.73-1.66v-2.76Z"/>
            <path class="cls-16" d="m450,99.04c-1.64,1.13-3.56,1.83-5.69,1.83-1.26,0-2.46-.17-3.67-.49-.63-.17-1.8-.65-2.44-.23-.99.66-1.06,2.24-1.07,3.33,0,.14-.02.27-.03.4,0,0,0,0,0,0,2.25-4.86,4.53.41,10.17-1.72,1.24-.47,2.15-1.05,2.73-1.65v-1.48Z"/>
            <path class="cls-10" d="m432.28,103.08s7.18-7.12,4-9.49c-3.19-2.36-6.72-1.25-4,9.49Z"/>
            <path class="cls-16" d="m434.01,97.82c-1.92,1.29-1.19,4.21-1.73,5.26,1.16-1.2,6.62-6.81,4.17-9.34-.02.07-.11,2.51-2.44,4.08Z"/>
            <g>
              <path class="cls-10" d="m420.55,99.47c1.21.52,2.52.78,3.83.8,0,0,.01,0,.02,0,2.09.04,3.56.88,5.5,1.42.06.02.12.04.18.06.6.17,1.28.4,2.08.73,0,0-4.65-9.15-9.66-7.4-4.44,1.56-6.55,2.41-1.96,4.37Z"/>
              <path class="cls-16" d="m420.6,99.49c1.2.51,2.48.76,3.78.78,0,0,.01,0,.02,0,2.09.04,3.56.88,5.5,1.42.06.02.12.04.18.06.6.17,1.28.4,2.08.73-1.8-2.22-5.34-4.77-7.82-4.15-2.24.56-3.92.51-6.2-.35.31.43,1.09.92,2.47,1.5Z"/>
            </g>
          </g>
          <path class="cls-14" d="m450,109.22h-4.74c-1.19,2.59-5.57,4.5-10.8,4.5s-9.61-1.92-10.8-4.5h-16.15c-1.19,2.59-5.57,4.5-10.8,4.5s-9.61-1.92-10.8-4.5h-16.15c-1.19,2.59-5.57,4.5-10.8,4.5s-9.61-1.92-10.8-4.5h-16.31c-1.19,2.59-5.57,4.5-10.8,4.5s-9.61-1.92-10.8-4.5h-16.15c-1.19,2.59-5.57,4.5-10.8,4.5s-9.61-1.92-10.8-4.5h-16.15c-1.19,2.59-5.57,4.5-10.8,4.5s-9.61-1.92-10.8-4.5h-10.2v9.34h225.44v-9.34Z"/>
        </g>
        <g>
          <path class="cls-3" d="m335.73,38.98c1.36-.08,2.97.85,4.57,1.86,5.03,3.18,8.89,10.16,15.35,10.09,2.94-.03,7.65-2.08,12.45-3.87l.51,5.04c-2.34.55-4.66,1.2-6.94,2.01-3.98,1.43-7.98,2.48-12.02,3.32-3.23-2.03-7.88-6.4-15.13-14.45-1.08-1.2-.39-3.91,1.22-4Z"/>
          <path class="cls-3" d="m357.07,52.52c-3.98,1.43-7.98,2.48-12.02,3.32-3.23-2.03-7.88-6.4-15.13-14.45-1.08-1.2-.39-3.91,1.22-4,1.36-.08,2.97.85,4.57,1.86,5.04,3.18,8.89,10.16,15.35,10.09,6.46-.06,21.45-9.91,27.22-5.2,0,0,.02-.03.05-.07l.41,4.13c-7.35.78-14.68,1.81-21.68,4.32Z"/>
          <path class="cls-1" d="m351.48,51.34c-3.98,1.43-7.98,2.48-12.02,3.32-3.23-2.03-8.15-6.09-15.4-14.14-1.08-1.2-.31-3.14,1.3-3.23,1.36-.08,3.01.07,4.76.77,4.41,1.79,8.89,10.16,15.35,10.09,6.46-.06,21.45-9.91,27.22-5.2,0,0,.02-.03.05-.07l.41,4.13c-7.35.78-14.68,1.81-21.68,4.32Z"/>
          <g>
            <g>
              <path class="cls-4" d="m346.68,80.33c-.88-1.54-1.84-2.9-2.68-4.29-.22-.34-.4-.7-.6-1.05-.18-.35-.35-.68-.52-1.04l-.25-.59-.12-.29-.03-.07s.03.06.01.02v-.02s-.02-.04-.02-.04l-.05-.14c-.12-.38-.27-.74-.36-1.13-.42-1.53-.61-3.13-.65-4.66,0-.38-.01-.76,0-1.13.02-.36.03-.71.05-1.06.04-.38.07-.76.11-1.13.03-.28.1-.66.15-.98.05-.33.11-.65.16-.96.05-.31.09-.62.18-.91.14-.59.28-1.14.41-1.66.1-.36.2-.7.3-1.02h-2.11s-.01.05-.02.07c-.13.59-.26,1.21-.4,1.87-.08.32-.12.68-.17,1.03-.05.36-.1.72-.15,1.1-.05.39-.11.72-.14,1.18-.02.37-.05.75-.08,1.13,0,.43-.02.86-.03,1.3,0,.44.02.86.04,1.3.09,1.75.36,3.6.91,5.39.12.45.31.87.46,1.31l.06.16.05.12.03.07.13.29.27.58c.2.39.43.81.65,1.2.23.36.45.75.68,1.1.93,1.42,1.91,2.71,2.77,4.1.84,1.37,1.54,2.93,1.89,4.58.17.82.25,1.67.22,2.48,0,.2-.03.4-.05.61l-.05.3-.02.15v.04s0,.02,0,.02c0,0,0,0,0,0v.04c-.12.42-.22.89-.36,1.19-.51,1.42-1.38,2.7-2.11,3.99-.19.32-.36.67-.54.99l-.08.15-.05.13-.11.25c-.07.17-.14.34-.21.5-.07.17-.14.33-.21.49-.06.18-.12.37-.17.55-.11.36-.23.72-.33,1.07-.08.36-.15.7-.22,1.05-.04.17-.07.34-.11.51-.02.17-.04.34-.06.51-.04.33-.08.66-.12.97-.03.32-.03.63-.05.93-.01.3-.02.59-.03.87.01.28.02.55.04.81.01.26.02.51.03.74.02.24.06.46.08.67.06.42.1.8.16,1.13.07.32.13.59.18.81.1.44.15.67.15.67l.43-.23s-.04-.22-.13-.64c-.04-.21-.09-.47-.15-.77-.05-.31-.07-.67-.12-1.07-.02-.2-.05-.41-.06-.63,0-.22,0-.46-.01-.7,0-.24,0-.5-.01-.76.02-.26.03-.53.05-.82.02-.28.03-.57.07-.87.04-.29.09-.59.14-.9.02-.15.05-.31.07-.47.04-.15.07-.31.11-.46.08-.31.15-.63.23-.96.38-1.21.91-2.57,1.67-3.74.74-1.23,1.66-2.4,2.35-4.15.2-.46.29-.86.41-1.29l.02-.08.02-.07v-.02s.01-.05.01-.05l.03-.18.07-.37c.03-.25.07-.5.08-.76.08-1.02,0-2.06-.18-3.05-.37-1.98-1.12-3.75-2-5.31Z"/>
              <path class="cls-4" d="m348.14,58.2s0,.04-.02.06c-.36,1.33-1.14,3.12-2.37,5.08-.61.99-1.32,2.02-2.07,3.15-.75,1.13-1.55,2.38-2.28,3.77-.74,1.42-1.41,2.98-1.92,4.72-.24.88-.46,1.76-.6,2.72l-.09.66c-.03.22-.05.49-.07.73-.05.5-.07.98-.07,1.46-.03,1.93.23,3.89.84,5.62.6,1.76,1.53,3.1,2.39,4.27.87,1.18,1.69,2.25,2.3,3.42.62,1.15,1.02,2.42,1.11,3.62.01.15.02.3.03.45,0,.15-.01.29-.02.43,0,.13-.01.26-.02.39-.03.15-.05.3-.08.45-.03.15-.05.29-.08.44-.03.13-.07.25-.1.38-.06.25-.13.49-.21.74-.15.49-.29.99-.42,1.44-.11.46-.2.93-.23,1.35-.08.84,0,1.55.13,1.98.12.44.25.64.24.64l.38-.36s-.08-.17-.16-.51c-.08-.34-.13-.9-.02-1.62.05-.36.14-.72.26-1.15.14-.42.28-.86.46-1.36.09-.24.17-.51.26-.81.04-.15.09-.29.13-.44.03-.14.06-.29.1-.43.03-.15.06-.3.1-.45.04-.25.04-.37.06-.56.01-.18.03-.36.04-.54,0-.18-.01-.37-.02-.55-.06-1.49-.48-3.01-1.14-4.35-.64-1.37-1.5-2.54-2.31-3.74-.82-1.19-1.59-2.44-2.05-3.91-.48-1.45-.67-3.13-.62-4.79.01-.42.03-.83.08-1.22.02-.2.03-.39.06-.6l.11-.65c.13-.78.34-1.59.56-2.35.46-1.52,1.1-2.94,1.78-4.21.7-1.29,1.46-2.44,2.21-3.55.75-1.11,1.48-2.16,2.12-3.2.65-1.03,1.22-2.05,1.66-3.02.45-.98.79-1.89,1.01-2.69.1-.32.17-.63.24-.92h-1.72Z"/>
              <path class="cls-4" d="m348.79,91.34c-.14-.44-.27-.72-.45-1.13-.18-.35-.36-.71-.55-1.07-.78-1.38-1.69-2.61-2.55-3.87-.42-.65-.84-1.3-1.26-1.96l-.63-.98-.58-1.05c-.38-.7-.77-1.4-1.15-2.1-.37-.71-.69-1.46-1.03-2.17-.7-1.4-1.27-2.97-1.86-4.45-.56-1.39-1.04-2.92-1.33-4.22-.07-.33-.15-.63-.21-.98-.05-.37-.1-.74-.14-1.1l-.03-.27v-.07s0-.01,0-.01v-.03s0-.06,0-.06c0-.16-.01-.32-.02-.48-.01-.32-.03-.62-.01-.93,0-1.22.19-2.36.35-3.37.19-1.01.39-4.5.57-5.22.02-.08.04-.14.06-.22l-1.97-1.31c-.13.65-.37,5.31-.5,6.15-.15,1.15-.33,2.46-.3,3.96-.01.37.02.75.05,1.14.01.19.03.39.04.59v.07s0,.04,0,.04v.02s.01.1.01.1l.02.13.04.27c.06.36.11.72.17,1.09.07.38.19.81.28,1.21.42,1.63.94,3.09,1.6,4.6.62,1.45,1.22,2.96,2.02,4.43.38.74.74,1.51,1.14,2.23.42.7.83,1.4,1.25,2.11l.63,1.05.68.98c.45.65.9,1.3,1.35,1.94.92,1.24,1.84,2.38,2.58,3.61.18.32.35.63.52.94.14.28.33.7.43,1,.25.64.44,1.37.54,2.06.12.7.12,1.39.05,2.04-.02.16-.04.32-.06.48-.04.16-.07.32-.11.48-.09.32-.16.57-.28.86-.44,1.12-1.02,2.07-1.46,3-.12.26-.21.45-.31.69-.09.24-.19.47-.26.7-.15.45-.26.89-.34,1.3-.17.82-.11,1.52-.07,1.97.09.45.14.69.14.69l.43-.23s-.03-.2-.1-.57c-.01-.38-.06-.95.11-1.66.08-.35.19-.74.34-1.14.07-.2.16-.39.25-.6.09-.2.21-.44.31-.64.45-.87,1.06-1.77,1.59-3,.13-.29.26-.68.36-1.01.05-.17.09-.35.14-.53.03-.19.06-.39.1-.58.11-.79.12-1.63.01-2.45-.1-.83-.28-1.64-.56-2.44Z"/>
              <path class="cls-4" d="m335.54,81.71l.06-.39v-.1c.04-.13.02-.05.03-.09v-.03s.02-.05.02-.05l.05-.21.21-.85c.19-.53.35-1.08.59-1.56.43-1,.99-1.85,1.57-2.62l.45-.56.48-.52c.34-.38.59-.59.94-.93.65-.52,1.3-1.1,1.94-1.53.63-.45,1.24-.89,1.85-1.32.59-.4,1.18-.89,1.74-1.31,1.01-.88,2-1.82,2.79-2.83.82-.97,1.5-1.99,2.07-2.91.56-.94,1.03-1.79,1.35-2.5.34-.67.6-1.33.78-1.77.08-.2-1.29-3.6-1.1-4.21h2.73c-.39,1.05.93,4.65.38,5.94-.18.43-.45,1.03-.89,1.86-.42.84-.95,1.74-1.61,2.76-.66.99-1.45,2.07-2.38,3.1-.24.26-.47.53-.72.78-.26.24-.51.49-.78.75-.26.26-.54.5-.83.73-.3.24-.55.46-.89.72-.59.4-1.16.83-1.8,1.23-.62.4-1.25.81-1.9,1.22-.64.39-1.22.88-1.85,1.33-.25.23-.64.53-.88.79l-.41.41-.4.46c-.51.63-1,1.32-1.37,2.11-.21.38-.34.81-.51,1.22l-.18.65-.05.16v.04s-.02.02-.02.02c0-.01,0,.03,0,.01v.05s-.08.39-.08.39c-.34,1.8-.11,3.83.54,5.45l.27.59.03.07v.02c-.03-.06,0,0,0-.01l.02.04.09.15.17.3c.24.38.43.66.71,1,.51.64,1.08,1.2,1.66,1.75,1.16,1.1,2.37,2.14,3.3,3.61.46.73.83,1.56,1.08,2.44.22.84.32,1.79.35,2.62.03,1.67-.13,3.15-.2,4.41-.07,1.18-.05,2.18.04,3.02-.17.17-.33.34-.48.53,0-.05-.02-.09-.03-.14-.15-.95-.21-2.15-.17-3.45.04-1.32.15-2.77.08-4.3-.05-.77-.15-1.47-.36-2.25-.22-.72-.55-1.39-.97-2-.84-1.23-2.01-2.16-3.22-3.21-.61-.53-1.23-1.09-1.83-1.78-.29-.32-.62-.76-.87-1.15l-.18-.29-.09-.15-.02-.04-.03-.05v-.02s-.06-.09-.06-.09l-.35-.71c-.86-1.98-1.22-4.45-.86-6.81Z"/>
              <path class="cls-4" d="m341.72,84.74c-.77-1.28-1.6-2.46-2.37-3.67-.37-.62-.76-1.23-1.1-1.85l-.52-.93c-.17-.31-.34-.66-.5-.99l-.25-.5c-.03-.07-.1-.19-.11-.22l-.11-.25c-.14-.33-.28-.67-.42-1-.14-.33-.29-.65-.41-.99-.12-.34-.23-.68-.35-1.02-.11-.34-.23-.67-.34-1-.1-.34-.19-.68-.28-1.02-.17-.68-.38-1.32-.49-1.99-.13-.66-.27-1.3-.39-1.92-.09-.63-.17-1.25-.26-1.83-.1-.58-.11-1.16-.16-1.7-.03-.54-.1-1.06-.1-1.54,0-.96.4-1.99.42-2.71.03-.69,3.04-5.75,3.06-6.14h-1.59c-.02.37-3.02,5.39-3.05,5.99-.03.73-.43,1.91-.41,2.97,0,.54.08,1.08.12,1.67.06.58.07,1.2.18,1.83.09.63.19,1.29.28,1.97.12.67.28,1.36.42,2.07.13.72.36,1.41.55,2.13.1.36.2.73.31,1.09.13.35.25.71.38,1.07.13.36.26.72.39,1.09.13.36.3.7.45,1.06.15.35.31.71.47,1.06l.12.27c.06.14.09.18.14.27l.25.49c.17.33.33.66.52.99l.58.99c.39.67.8,1.27,1.2,1.9.82,1.23,1.67,2.37,2.42,3.54.74,1.17,1.41,2.39,1.77,3.7.18.65.29,1.32.31,1.98v.25s0,.12,0,.12v.02s0,.07,0,.07c-.01.18-.02.37-.04.55l-.02.27c0,.08-.03.15-.04.23l-.07.45c-.24,1.24-.7,2.4-1.14,3.46-.44,1.06-.89,2.03-1.2,3-.31.98-.45,2.01-.31,2.82.13.81.43,1.36.67,1.65.12.15.23.23.31.29.07.05,1.07,1.01,1.07,1.01l.19-.6s-.99-.95-1.04-1c-.05-.04-.12-.1-.2-.22-.16-.22-.36-.64-.43-1.27,0-.15-.03-.28-.01-.5v-.15s.02-.08.02-.11c.01-.09.03-.18.04-.28.02-.19.07-.39.12-.59.03-.1.05-.2.08-.31.04-.1.07-.2.11-.3.31-.85.78-1.76,1.27-2.81.49-1.05,1.04-2.21,1.39-3.7.07-.38.18-.82.2-1.16l.05-.55v-.07s.02-.12.02-.12v-.16s0-.31,0-.31c0-.84-.12-1.69-.32-2.49-.4-1.62-1.12-3.03-1.88-4.31Z"/>
            </g>
            <g>
              <path class="cls-9" d="m339.43,80.33c.88-1.54,1.84-2.9,2.68-4.29.22-.34.4-.7.6-1.05.18-.35.35-.68.52-1.04l.25-.59.12-.29.03-.07s-.03.06-.01.02v-.02s.02-.04.02-.04l.05-.14c.12-.38.27-.74.36-1.13.42-1.53.61-3.13.65-4.66,0-.38.01-.76,0-1.13-.02-.36-.03-.71-.05-1.06-.04-.38-.07-.76-.11-1.13-.03-.28-.1-.66-.15-.98-.05-.33-.11-.65-.16-.96-.05-.31-.09-.62-.18-.91-.14-.59-.28-1.14-.41-1.66-.1-.36-.2-.7-.3-1.02h2.11s.01.05.02.07c.13.59.26,1.21.4,1.87.08.32.12.68.17,1.03.05.36.1.72.15,1.1.05.39.11.72.14,1.18.02.37.05.75.08,1.13,0,.43.02.86.03,1.3,0,.44-.02.86-.04,1.3-.09,1.75-.36,3.6-.91,5.39-.12.45-.31.87-.46,1.31l-.06.16-.05.12-.03.07-.13.29-.27.58c-.2.39-.43.81-.65,1.2-.23.36-.45.75-.68,1.1-.93,1.42-1.91,2.71-2.77,4.1-.84,1.37-1.54,2.93-1.89,4.58-.17.82-.25,1.67-.22,2.48,0,.2.03.4.05.61l.05.3.02.15v.04s0,.02,0,.02c0,0,0,0,0,0v.04c.12.42.22.89.36,1.19.51,1.42,1.38,2.7,2.11,3.99.19.32.36.67.54.99l.08.15.05.13.11.25c.07.17.14.34.21.5.07.17.14.33.21.49.06.18.12.37.17.55.11.36.23.72.33,1.07.08.36.15.7.22,1.05.04.17.07.34.1.51.02.17.04.34.06.51.04.33.08.66.12.97.03.32.03.63.05.93.01.3.02.59.03.87-.01.28-.02.55-.04.81-.01.26-.02.51-.03.74-.02.24-.06.46-.08.67-.06.42-.17,1.38-.23,1.7-.11,1.02-.58,2.55-.58,2.55l-.43-.23s.4-1.41.53-2.49c.05-.31.15-1.24.2-1.64.02-.2.05-.41.06-.63,0-.22,0-.46.01-.7,0-.24,0-.5.01-.76-.02-.26-.04-.53-.05-.82-.02-.28-.03-.57-.07-.87-.04-.29-.09-.59-.14-.9-.02-.15-.05-.31-.07-.47-.04-.15-.07-.31-.11-.46-.08-.31-.15-.63-.23-.96-.38-1.21-.91-2.57-1.67-3.74-.74-1.23-1.66-2.4-2.35-4.15-.2-.46-.29-.86-.41-1.29l-.02-.08-.02-.07v-.02s-.01-.05-.01-.05l-.03-.18-.07-.37c-.03-.25-.07-.5-.08-.76-.08-1.02,0-2.06.18-3.05.37-1.98,1.12-3.75,2-5.31Z"/>
              <path class="cls-9" d="m337.96,55.58s.99-.57.99-.55c.15.55-.6,2.25-.31,3.47.42,1.71.98,3.69,1.7,4.83.61.99,1.32,2.02,2.07,3.15.75,1.13,1.55,2.38,2.28,3.77.74,1.42,1.41,2.98,1.92,4.72.24.88.46,1.76.6,2.72l.09.66c.03.22.05.49.07.73.05.5.07.98.07,1.46.03,1.93-.23,3.89-.84,5.62-.6,1.76-1.53,3.1-2.39,4.27-.87,1.18-1.69,2.25-2.3,3.42-.62,1.15-1.02,2.42-1.11,3.62-.01.15-.02.3-.03.45,0,.15.01.29.02.43,0,.13.01.26.02.39.03.15.05.3.08.45.03.15.05.29.08.44.03.13.07.25.1.38.06.25.13.49.21.74.15.49.29.99.42,1.44.11.46.2.93.23,1.35.08.84,0,1.55-.13,1.98-.12.44-.25.64-.24.64l-.38-.36s.08-.17.16-.51c.08-.34.13-.9.02-1.62-.05-.36-.14-.72-.26-1.15-.14-.42-.28-.86-.46-1.36-.09-.24-.17-.51-.26-.81-.04-.15-.09-.29-.13-.44-.03-.14-.06-.29-.1-.43-.03-.15-.06-.3-.1-.45-.04-.25-.04-.37-.06-.56-.01-.18-.03-.36-.04-.54,0-.18.01-.37.02-.55.06-1.49.48-3.01,1.14-4.35.64-1.37,1.5-2.54,2.31-3.74.82-1.19,1.59-2.44,2.05-3.91.48-1.45.67-3.13.62-4.79-.01-.42-.03-.83-.08-1.22-.02-.2-.03-.39-.06-.6l-.11-.65c-.13-.78-.34-1.59-.56-2.35-.46-1.52-1.1-2.94-1.78-4.21-.7-1.29-1.46-2.44-2.21-3.55-.75-1.11-1.48-2.16-2.12-3.2-.65-1.03-1.22-2.05-1.66-3.02-.45-.98-.79-1.89-1.01-2.69-.1-.32-.17-4.43-.24-4.72l1.72,1.19Z"/>
              <path class="cls-9" d="m337.32,91.34c.14-.44.27-.72.45-1.13.18-.35.36-.71.55-1.07.78-1.38,1.69-2.61,2.55-3.87.42-.65.84-1.3,1.26-1.96l.63-.98.58-1.05c.38-.7.77-1.4,1.15-2.1.37-.71.69-1.46,1.03-2.17.7-1.4,1.27-2.97,1.86-4.45.56-1.39,1.04-2.92,1.34-4.22.07-.33.15-.63.21-.98.05-.37.1-.74.14-1.1l.03-.27v-.07s0-.01,0-.01v-.03s0-.06,0-.06c0-.16.01-.32.02-.48.01-.32.03-.62.01-.93,0-1.22-.19-2.36-.35-3.37-.19-1.01-.39-1.89-.57-2.61-.02-.08-.04-.14-.06-.22h2.07c.13.65.27,1.39.4,2.22.15,1.15.33,2.46.3,3.96.01.37-.02.75-.05,1.14-.01.19-.03.39-.04.59v.07s0,.04,0,.04v.02s-.01.1-.01.1l-.02.13-.04.27c-.06.36-.11.72-.17,1.09-.07.38-.19.81-.28,1.21-.42,1.63-.94,3.09-1.6,4.6-.62,1.45-1.22,2.96-2.02,4.43-.38.74-.74,1.51-1.14,2.23-.42.7-.83,1.4-1.25,2.11l-.63,1.05-.68.98c-.45.65-.9,1.3-1.35,1.94-.92,1.24-1.84,2.38-2.58,3.61-.18.32-.35.63-.52.94-.14.28-.33.7-.43,1-.25.64-.44,1.37-.54,2.06-.12.7-.12,1.39-.05,2.04.02.16.04.32.06.48.04.16.07.32.11.48.09.32.16.57.28.86.44,1.12,1.02,2.07,1.46,3,.12.26.21.45.31.69.09.24.19.47.26.7.15.45.26.89.34,1.3.17.82.11,1.52.07,1.97-.09.45-.14.69-.14.69l-.43-.23s.03-.2.1-.57c.01-.38.06-.95-.11-1.66-.08-.35-.19-.74-.34-1.14-.07-.2-.16-.39-.25-.6-.09-.2-.21-.44-.31-.64-.45-.87-1.06-1.77-1.59-3-.13-.29-.26-.68-.36-1.01-.05-.17-.09-.35-.14-.53-.03-.19-.06-.39-.1-.58-.11-.79-.12-1.63-.01-2.45.1-.83.28-1.64.56-2.44Z"/>
              <path class="cls-9" d="m341.94,97.92c-.22.77-.31,1.48-.36,2.25-.08,1.53.04,2.98.08,4.3.04,1.15-.18,2.89-.3,3.78-.16-.24-.32-.46-.5-.68.04-.69.21-2.16.16-3.05-.07-1.27-.23-2.74-.2-4.41.03-.83.14-1.78.35-2.62.24-.88.62-1.71,1.08-2.44.93-1.47,2.15-2.51,3.3-3.61.58-.55,1.15-1.12,1.66-1.75.27-.33.47-.62.71-1l.17-.3.09-.15.02-.04s.03-.04,0,.01v-.02s.04-.07.04-.07l.27-.59c.64-1.63.87-3.65.54-5.45l-.07-.39v-.05s-.01-.03-.01-.01v-.02s-.02-.04-.02-.04l-.05-.16-.18-.65c-.17-.41-.3-.84-.51-1.22-.37-.79-.86-1.48-1.37-2.11l-.4-.46-.41-.41c-.24-.26-.62-.57-.88-.79-.63-.45-1.2-.94-1.85-1.33-.64-.42-1.28-.82-1.9-1.22-.65-.4-1.21-.83-1.8-1.23-.34-.26-.6-.48-.89-.72-.29-.23-.57-.46-.83-.73-.26-.25-.52-.5-.78-.75-.25-.26-.48-.53-.72-.78-.94-1.03-1.72-2.11-2.38-3.1-.65-1.01-1.19-1.92-1.61-2.76-.45-.83-.7-1.44-.89-1.86-.13-.3,2.29-6.72,2.49-8.24l2.48.32c.18.61-2.25,6.35-2.3,6.56-.11.55-.23.72.11,1.39.32.71.79,1.57,1.35,2.5.57.92,1.25,1.94,2.07,2.91.79,1.01,1.78,1.95,2.79,2.83.57.42,1.15.91,1.74,1.31.6.43,1.22.87,1.85,1.32.64.43,1.28,1.01,1.94,1.53.35.34.6.55.94.93l.48.52.45.56c.58.77,1.14,1.62,1.57,2.62.24.48.4,1.03.59,1.56l.21.85.05.21v.05s.02.03.02.03c0,.04,0-.04.02.09v.1s.07.39.07.39c.36,2.36,0,4.83-.86,6.81l-.35.71-.04.09v.02s-.04.05-.04.05l-.02.04-.09.15-.18.29c-.26.39-.58.83-.87,1.15-.6.68-1.22,1.25-1.83,1.78-1.21,1.05-2.38,1.98-3.22,3.21-.42.61-.74,1.29-.97,2Z"/>
              <path class="cls-9" d="m344.38,84.74c.78-1.28,1.6-2.46,2.37-3.67.37-.62.76-1.23,1.1-1.85l.52-.93c.17-.31.34-.66.5-.99l.25-.5c.03-.07.1-.19.11-.22l.11-.25c.14-.33.28-.67.42-1,.14-.33.29-.65.41-.99.12-.34.23-.68.35-1.02.12-.34.23-.67.34-1,.1-.34.19-.68.28-1.02.17-.68.38-1.32.49-1.99.13-.66.27-1.3.39-1.92.09-.63.17-1.25.26-1.83.1-.58.11-1.16.16-1.7.03-.54.1-1.06.1-1.54,0-.96-.93-3.65-.96-4.37-.03-.69-.06-1.23-.08-1.62h1.59c.02.37.04.86.06,1.47.03.73.96,3.57.95,4.64,0,.54-.08,1.08-.12,1.67-.06.58-.07,1.2-.18,1.83-.09.63-.19,1.29-.28,1.97-.12.67-.28,1.36-.42,2.07-.13.72-.36,1.41-.55,2.13-.1.36-.2.73-.31,1.09-.13.35-.25.71-.38,1.07-.13.36-.26.72-.39,1.09-.13.36-.3.7-.45,1.06-.15.35-.31.71-.47,1.06l-.12.27c-.06.14-.09.18-.14.27l-.25.49c-.17.33-.33.66-.52.99l-.58.99c-.39.67-.8,1.27-1.2,1.9-.82,1.23-1.67,2.37-2.42,3.54-.74,1.17-1.41,2.39-1.77,3.7-.18.65-.29,1.32-.31,1.98v.25s0,.12,0,.12v.02s0,.07,0,.07c.01.18.02.37.04.55l.02.27c0,.08.03.15.04.23l.07.45c.24,1.24.7,2.4,1.15,3.46.44,1.06.89,2.03,1.2,3,.31.98.45,2.01.31,2.82-.13.81-.43,1.36-.67,1.65-.12.15-.23.23-.31.29-.07.05-1.07,1.07-1.07,1.07l-.19-.6s.99-1.01,1.04-1.05c.05-.04.12-.1.2-.22.16-.22.36-.64.43-1.27,0-.15.03-.28.01-.5v-.15s-.02-.08-.02-.11c-.01-.09-.03-.18-.04-.28-.02-.19-.07-.39-.12-.59-.03-.1-.05-.2-.08-.31-.04-.1-.07-.2-.11-.3-.31-.85-.78-1.76-1.28-2.81-.49-1.05-1.04-2.21-1.39-3.7-.07-.38-.18-.82-.2-1.16l-.05-.55v-.07s-.02-.12-.02-.12v-.16s0-.31,0-.31c0-.84.12-1.69.32-2.49.4-1.62,1.12-3.03,1.88-4.31Z"/>
            </g>
          </g>
          <g>
            <path class="cls-5" d="m339.66,49.4c-5.59-15.49-13.66-25.93-13.66-25.93,6.88,5.89,15.62,23.11,16.35,25.03l-2.69.9Z"/>
            <path class="cls-19" d="m343.34,48.17c-4.84-15.74-4.67-28.93-4.67-28.93-1.96,8.85,1.68,27.76,2.25,29.74l2.42-.81Z"/>
            <path class="cls-10" d="m338.73,24.58s-16.07-8.09,4.41-17.63,25.28-1.02,15.21,7.17c-10.07,8.19-18.35-1.02-19.62,10.45Z"/>
            <path class="cls-16" d="m351.4,13.49c-2.57.87-5.14,1.32-7.84,1.5-1.41.09-4.12-.1-5.14,1.2-1.58,2.03-.64,5.3.08,7.55.09.28.15.56.2.83.01,0,.02.01.02.01,1.27-11.47,9.55-2.26,19.62-10.45,4.6-3.74,6.09-7.54,4.41-9.67-2.66,4.09-6.43,7.36-11.36,9.03Z"/>
            <path class="cls-10" d="m328.32,26.22s9.82-19.47,1.69-22.12c-8.14-2.65-14.59,2.02-1.69,22.12Z"/>
            <path class="cls-16" d="m328.25,14.29c-3.05,3.96.43,9.42.06,11.93,1.54-3.24,8.89-18.44,2.14-21.93,0,.16,1.48,5.21-2.21,10Z"/>
            <g>
              <path class="cls-10" d="m301.98,27.74c2.83.23,5.68-.12,8.39-.97.01,0,.02,0,.04-.01,4.29-1.35,7.88-.63,12.22-.85.14,0,.28,0,.42,0,1.35-.06,2.88-.04,4.75.08,0,0-15.77-15.54-24.79-8.52-8,6.22-11.74,9.4-1.02,10.27Z"/>
              <path class="cls-16" d="m302.1,27.75c2.79.22,5.59-.14,8.26-.98.01,0,.03,0,.04-.01,4.29-1.35,7.88-.63,12.22-.85.14,0,.28,0,.42,0,1.35-.06,2.88-.04,4.75.08-5.19-3.32-14.18-6.1-18.83-3.14-4.19,2.66-7.67,3.73-12.92,3.52.93.67,2.86,1.13,6.06,1.38Z"/>
            </g>
          </g>
          <path class="cls-19" d="m344.91,45.43c4.84-15.74,4.67-28.93,4.67-28.93,1.96,8.85-1.68,27.77-2.25,29.74l-2.42-.81Z"/>
          <path class="cls-10" d="m349.52,21.84s16.07-8.09-4.41-17.63-25.28-1.02-15.21,7.17c10.07,8.19,18.35-1.02,19.62,10.45Z"/>
          <path class="cls-16" d="m336.85,10.74c2.57.87,5.14,1.32,7.84,1.5,1.41.09,4.12-.1,5.14,1.2,1.58,2.03.64,5.3-.08,7.55-.09.28-.15.56-.2.83-.01,0-.02.01-.02.01-1.27-11.47-9.55-2.26-19.62-10.45-4.6-3.74-6.09-7.54-4.41-9.67,2.66,4.09,6.43,7.36,11.36,9.03Z"/>
          <g>
            <path class="cls-5" d="m344.41,46.47c5.59-15.49,13.44-24.28,13.44-24.28-6.88,5.89-15.4,21.46-16.13,23.38l2.69.9Z"/>
            <path class="cls-10" d="m355.75,23.29s-9.82-19.47-1.69-22.12c8.14-2.65,14.59,2.02,1.69,22.12Z"/>
            <path class="cls-16" d="m355.82,11.36c3.05,3.96-.43,9.42-.06,11.93-1.54-3.24-8.89-18.44-2.14-21.93,0,.16-1.48,5.21,2.21,10Z"/>
            <g>
              <path class="cls-10" d="m382.09,24.81c-2.83.23-5.68-.12-8.39-.97-.01,0-.02,0-.04-.01-4.29-1.35-7.88-.63-12.22-.85-.14,0-.28,0-.42,0-1.35-.06-2.88-.04-4.75.08,0,0,15.77-15.54,24.79-8.52,8,6.22,11.74,9.4,1.02,10.27Z"/>
              <path class="cls-16" d="m381.97,24.82c-2.79.22-5.59-.14-8.26-.98-.01,0-.03,0-.04-.01-4.29-1.35-7.88-.63-12.22-.85-.14,0-.28,0-.42,0-1.35-.06-2.88-.04-4.75.08,5.19-3.32,14.18-6.1,18.83-3.14,4.19,2.66,7.67,3.73,12.92,3.52-.93.67-2.86,1.13-6.06,1.38Z"/>
            </g>
          </g>
          <g>
            <path class="cls-5" d="m344.3,49.04c.4-16.46,4.74-28.92,4.74-28.92-4.66,7.77-7.49,26.87-7.57,28.92h2.83Z"/>
            <path class="cls-19" d="m340.43,49.04c-.4-16.46-4.74-28.92-4.74-28.92,4.66,7.77,7.21,26.87,7.29,28.92h-2.55Z"/>
            <path class="cls-10" d="m337.33,25.2s12.68-12.77-9.77-15.32c-22.45-2.55-24.3,7.04-12.15,11.62,12.15,4.58,17.08-6.78,21.92,3.7Z"/>
            <path class="cls-16" d="m321.79,18.7c2.71,0,5.3-.37,7.91-1.06,1.36-.36,3.87-1.4,5.25-.49,2.14,1.42,2.28,4.82,2.32,7.18,0,.3.03.58.07.85-.01.01-.02.02-.02.02-4.84-10.48-9.77.88-21.92-3.7-5.54-2.09-8.16-5.22-7.25-7.77,3.81,3.03,8.43,4.94,13.64,4.96Z"/>
            <path class="cls-10" d="m347.72,23.46s-15.49-15.35-8.61-20.45c6.87-5.09,14.48-2.7,8.61,20.45Z"/>
            <path class="cls-16" d="m344,12.12c4.15,2.79,2.57,9.07,3.72,11.34-2.49-2.59-14.27-14.67-8.98-20.12.04.15.25,5.41,5.26,8.79Z"/>
            <g>
              <path class="cls-10" d="m373.18,16.55c-2.61,1.11-5.43,1.69-8.26,1.73-.01,0-.03,0-.04,0-4.5.08-7.67,1.9-11.86,3.07-.14.04-.27.09-.4.13-1.29.37-2.75.87-4.48,1.58,0,0,10.03-19.73,20.81-15.94,9.56,3.36,14.11,5.2,4.22,9.42Z"/>
              <path class="cls-16" d="m373.07,16.6c-2.58,1.09-5.35,1.64-8.15,1.69-.01,0-.03,0-.04,0-4.5.08-7.67,1.9-11.86,3.07-.14.04-.27.09-.4.13-1.29.37-2.75.87-4.48,1.58,3.87-4.79,11.51-10.28,16.86-8.95,4.82,1.2,8.45,1.11,13.37-.75-.67.93-2.36,1.98-5.31,3.23Z"/>
            </g>
          </g>
          <path class="cls-5" d="m342.28,48.6c-1.39-10.35-3.81-17.28-3.81-17.28,2.42,4.03,4.34,11.11,5.65,17.28h-1.84Z"/>
          <path class="cls-19" d="m346.33,48.6c1.23-6.17,4.28-15.85,6.7-19.88,0,0-3.62,9.53-5.01,19.88h-1.69Z"/>
          <path class="cls-10" d="m339.8,34.67s15.49-15.35,8.61-20.45c-6.88-5.09-14.48-2.7-8.61,20.45Z"/>
          <path class="cls-16" d="m343.52,23.33c-4.15,2.79-2.57,9.07-3.72,11.34,2.49-2.59,14.27-14.67,8.98-20.12-.04.15-.25,5.41-5.26,8.79Z"/>
          <g>
            <path class="cls-10" d="m314.33,27.76c2.61,1.11,5.43,1.69,8.26,1.73.01,0,.03,0,.04,0,4.5.08,7.67,1.9,11.86,3.07.14.04.27.09.4.13,1.29.37,2.75.87,4.48,1.58,0,0-10.03-19.73-20.81-15.94-9.56,3.36-14.11,5.2-4.22,9.42Z"/>
            <path class="cls-16" d="m314.45,27.81c2.58,1.09,5.35,1.64,8.15,1.69.01,0,.03,0,.04,0,4.5.08,7.67,1.9,11.86,3.07.14.04.27.09.4.13,1.29.37,2.75.87,4.48,1.58-3.87-4.79-11.51-10.28-16.86-8.95-4.82,1.2-8.45,1.11-13.37-.75.67.93,2.36,1.98,5.31,3.23Z"/>
          </g>
          <g>
            <path class="cls-10" d="m369.8,31.84c-2.81.38-5.68.18-8.43-.53-.01,0-.02,0-.04,0-4.36-1.12-7.9-.21-12.25-.2-.14,0-.28.01-.42.02-1.35.01-2.88.11-4.74.33,0,0,14.93-16.34,24.31-9.81,8.32,5.79,12.21,8.78,1.56,10.2Z"/>
            <path class="cls-16" d="m369.68,31.86c-2.77.37-5.59.15-8.3-.55-.01,0-.03,0-.04-.01-4.36-1.12-7.9-.21-12.25-.2-.14,0-.28.01-.42.02-1.35.01-2.88.11-4.74.33,5.01-3.59,13.84-6.84,18.64-4.13,4.32,2.44,7.85,3.32,13.09,2.84-.89.72-2.8,1.28-5.98,1.7Z"/>
          </g>
          <path class="cls-15" d="m351.48,51.34c-3.98,1.43-7.98,2.48-12.02,3.32-3.23-2.03-8.15-6.09-15.4-14.14-1.08-1.2-.31-3.14,1.3-3.23,1.36-.08,3.01.07,4.76.77,4.41,1.79,8.43,8.98,14.89,8.92,6.46-.06,21.92-8.73,27.68-4.02,0,0,.02-.03.05-.07l.41,4.13c-7.35.78-14.68,1.81-21.68,4.32Z"/>
          <g>
            <path class="cls-10" d="m337.47,52.19c2.82.32,5.68.06,8.41-.71.01,0,.02,0,.04-.01,4.34-1.21,7.9-.38,12.24-.45.14,0,.28,0,.42.01,1.35-.01,2.88.05,4.74.23,0,0-15.26-16.03-24.51-9.31-8.2,5.96-12.03,9.02-1.35,10.23Z"/>
            <path class="cls-16" d="m337.59,52.2c2.78.31,5.6.04,8.29-.72.01,0,.03,0,.04-.01,4.34-1.21,7.9-.38,12.24-.45.14,0,.28,0,.42.01,1.35-.01,2.88.05,4.74.23-5.08-3.49-13.97-6.56-18.72-3.75-4.27,2.53-7.78,3.48-13.03,3.11.91.7,2.83,1.22,6.02,1.57Z"/>
          </g>
          <path class="cls-7" d="m450,79.28c-28.05-10.91-59.33-35.12-64.9-38.48-6.01-3.63-12.9,4.94-12.9,4.94-5.76-4.71-20.76,5.14-27.22,5.2-6.46.06-10.94-8.3-15.35-10.09-1.75-.71-3.4-.86-4.76-.77-1.6.1-2.37,2.04-1.3,3.23,3.29,3.66,5.56,7.08,8.24,8.68,3.25,1.95,6.06,3.99,9.39,6.62.5.4,1.15.55,1.78.45,5.14-.87,15.1-1.07,19.55-1.43,2.73-.22,12.78-3.6,19.16-.96,1.8.75,47.43,35.27,68.31,51.1v-28.48Z"/>
          <path class="cls-11" d="m362.49,45.37l8.06-4.87c14.41-4.97,13.12,1.35,15.18,2.63l-9.71,5.51s-7.17-3.21-25.67,1.07c0,0,11.63-4.29,12.14-4.34Z"/>
          <path class="cls-7" d="m344.44,43.9c-.13-.5.1-1.01.61-1.06,3.99-.36,19.03-1.87,27.88-4.93,14.41-4.98,13.36,3.8,15.42,5.09l-12.35,5.65s-1.94-6.04-22.5-.1c0,0-7.73.67-9.07-4.65Z"/>
          <path class="cls-2" d="m350.39,42.52s2.47,1.06,1.15,2.53c-.68.76-1.85,1.24-4.01.8-1.65-.33-2.46-1.43-2.59-2.15-.06-.34.18-.65.52-.69l4.93-.49Z"/>
          <path class="cls-2" d="m324.39,41.43c1.45-.21,3.98.73,3.92,4.21-.02.81-1.18,1.15-1.99.51-.7-.55-1.63-1.58-2.62-2.58-.49-.5-.8-1.93.68-2.14Z"/>
          <g>
            <path class="cls-10" d="m343.92,47.17s-13.52-10.09,7.37-15.24c20.88-5.14,23.79,3.4,12.88,9.11-10.91,5.71-16.95-4.07-20.25,6.12Z"/>
            <path class="cls-16" d="m357.8,39.28c-2.56.35-5.04.32-7.59.02-1.33-.16-3.83-.8-5.02.21-1.85,1.57-1.57,4.7-1.32,6.86.03.27.04.53.03.79.01,0,.02.02.02.02,3.3-10.19,9.33-.42,20.25-6.12,4.98-2.6,7.07-5.8,5.9-8.01-3.23,3.25-7.36,5.57-12.27,6.24Z"/>
          </g>
          <g>
            <path class="cls-10" d="m342.9,47.77s-15.49-15.35-8.61-20.45c6.87-5.09,14.48-2.7,8.61,20.45Z"/>
            <path class="cls-16" d="m339.18,36.44c4.15,2.79,2.57,9.07,3.72,11.34-2.49-2.59-14.27-14.67-8.98-20.12.04.15.25,5.41,5.26,8.79Z"/>
          </g>
          <g>
            <path class="cls-10" d="m317.1,40.46c2.61,1.11,5.43,1.68,8.26,1.73.01,0,.03,0,.04,0,4.5.08,7.67,1.9,11.86,3.07.14.04.27.09.4.13,1.29.37,2.75.87,4.48,1.58,0,0-10.03-19.73-20.81-15.94-9.56,3.36-14.11,5.2-4.22,9.42Z"/>
            <path class="cls-16" d="m317.22,40.5c2.58,1.09,5.35,1.64,8.15,1.69.01,0,.03,0,.04,0,4.5.08,7.67,1.9,11.86,3.07.14.04.27.09.4.13,1.29.37,2.75.87,4.48,1.58-3.87-4.79-11.51-10.28-16.86-8.95-4.82,1.2-8.45,1.11-13.37-.75.67.93,2.36,1.98,5.31,3.23Z"/>
          </g>
        </g>
      </g>
    </g>
  </g>
</svg>